<?xml version="1.0" encoding="UTF-8" standalone="no"?>
<!-- Created with Inkscape (http://www.inkscape.org/) -->
<svg
   xmlns:svg="http://www.w3.org/2000/svg"
   xmlns="http://www.w3.org/2000/svg"
   version="1.0"
   width="501"
   height="111"
   id="svg2693">
  <defs
     id="defs2695" />
  <g
     transform="translate(0.5,-1.8621826)"
     id="layer1">
    <path
       d="M 10.7645,54.934566 C 10.52983,55.062574 10.305831,55.126574 10.0925,55.126566 C 9.879164,55.126574 9.665831,55.073241 9.4525,54.966566 C 9.260498,54.859908 9.111165,54.710575 9.0045,54.518566 C 8.876499,54.305242 8.812499,54.081242 8.8125,53.846566 C 8.812499,53.398576 9.015165,53.03591 9.4205,52.758566 L 13.4205,50.326566 L 13.4205,42.038566 C 13.420494,41.675921 13.537827,41.366588 13.7725,41.110566 C 14.028494,40.854589 14.337827,40.726589 14.7005,40.726566 C 15.063159,40.726589 15.361826,40.854589 15.5965,41.110566 C 15.852492,41.345255 15.980492,41.643921 15.9805,42.006566 L 15.9805,63.126566 C 15.980492,63.489233 15.852492,63.787899 15.5965,64.022566 C 15.361826,64.257232 15.063159,64.374565 14.7005,64.374566 C 14.337827,64.374565 14.028494,64.257232 13.7725,64.022566 C 13.537827,63.787899 13.420494,63.489233 13.4205,63.126566 L 13.4205,53.334566 L 10.7645,54.934566 M 34.223214,57.606566 C 34.223202,58.481238 34.052536,59.30257 33.711214,60.070566 C 33.391203,60.817235 32.95387,61.467901 32.399214,62.022566 C 31.844538,62.577234 31.183205,63.025233 30.415214,63.366566 C 29.647207,63.686566 28.836541,63.846566 27.983214,63.846566 L 26.703214,63.846566 C 26.340543,63.846566 26.03121,63.729232 25.775214,63.494566 C 25.540544,63.238566 25.423211,62.929233 25.423214,62.566566 L 25.455214,42.758566 C 25.455211,42.39592 25.572544,42.086587 25.807214,41.830566 C 26.06321,41.574588 26.372543,41.446588 26.735214,41.446566 L 27.983214,41.446566 C 28.836541,41.446588 29.647207,41.617255 30.415214,41.958566 C 31.183205,42.278587 31.844538,42.71592 32.399214,43.270566 C 32.95387,43.825252 33.391203,44.486585 33.711214,45.254566 C 34.052536,46.022583 34.223202,46.833249 34.223214,47.686566 C 34.223202,48.710581 33.999202,49.659913 33.551214,50.534566 C 33.124536,51.387911 32.53787,52.091911 31.791214,52.646566 C 32.53787,53.222576 33.124536,53.937242 33.551214,54.790566 C 33.999202,55.643907 34.223202,56.582573 34.223214,57.606566 M 31.663214,47.686566 C 31.663205,47.174582 31.567205,46.705249 31.375214,46.278566 C 31.183205,45.830584 30.916539,45.435917 30.575214,45.094566 C 30.233873,44.753251 29.839206,44.486585 29.391214,44.294566 C 28.964541,44.102585 28.495208,44.006585 27.983214,44.006566 L 27.983214,51.366566 L 28.111214,51.366566 C 28.580541,51.345245 29.028541,51.238578 29.455214,51.046566 C 29.903206,50.833245 30.287206,50.566579 30.607214,50.246566 C 30.927205,49.905246 31.183205,49.521247 31.375214,49.094566 C 31.567205,48.646581 31.663205,48.177248 31.663214,47.686566 M 31.663214,57.606566 C 31.663205,57.094572 31.567205,56.62524 31.375214,56.198566 C 31.183205,55.750574 30.916539,55.355907 30.575214,55.014566 C 30.233873,54.673241 29.839206,54.406575 29.391214,54.214566 C 28.964541,54.022575 28.495208,53.926576 27.983214,53.926566 L 27.983214,61.286566 C 28.495208,61.286568 28.964541,61.190568 29.391214,60.998566 C 29.839206,60.806569 30.233873,60.539902 30.575214,60.198566 C 30.916539,59.857236 31.183205,59.473237 31.375214,59.046566 C 31.567205,58.598571 31.663205,58.118571 31.663214,57.606566 M 48.851429,54.630566 C 48.76609,54.694575 48.680757,54.747908 48.595429,54.790566 C 48.531424,54.811908 48.456757,54.843908 48.371429,54.886566 C 48.286091,54.907908 48.211424,54.929241 48.147429,54.950566 C 48.083424,54.950575 48.019425,54.950575 47.955429,54.950566 C 47.742091,54.950575 47.539425,54.907908 47.347429,54.822566 C 47.155425,54.715908 47.006092,54.555908 46.899429,54.342566 C 46.814092,54.171909 46.771426,53.798576 46.771429,53.222566 L 46.771429,42.022566 C 46.771426,41.659921 46.888759,41.361255 47.123429,41.126566 C 47.379425,40.891922 47.688758,40.774589 48.051429,40.774566 C 48.414091,40.774589 48.712757,40.891922 48.947429,41.126566 C 49.203423,41.361255 49.331423,41.659921 49.331429,42.022566 L 49.331429,51.334566 L 54.035429,48.486566 C 54.248752,48.358581 54.472751,48.294581 54.707429,48.294566 C 54.920751,48.294581 55.123417,48.347914 55.315429,48.454566 C 55.52875,48.561248 55.68875,48.710581 55.795429,48.902566 C 55.923417,49.137247 55.987417,49.361247 55.987429,49.574566 C 55.987417,50.022579 55.78475,50.385246 55.379429,50.662566 L 51.379429,53.094566 L 48.851429,54.630566 M 68.657429,52.710566 C 68.657423,51.899911 68.934756,51.217245 69.489429,50.662566 C 69.724088,50.427912 69.980088,50.235913 70.257429,50.086566 L 70.257429,44.390566 L 65.553429,47.238566 C 65.318759,47.366582 65.09476,47.430582 64.881429,47.430566 C 64.668093,47.430582 64.45476,47.377249 64.241429,47.270566 C 64.049427,47.163916 63.900094,47.014582 63.793429,46.822566 C 63.665428,46.60925 63.601428,46.38525 63.601429,46.150566 C 63.601428,45.702584 63.804094,45.339917 64.209429,45.062566 L 68.209429,42.630566 L 70.737429,41.094566 C 70.822754,41.030588 70.972087,40.966588 71.185429,40.902566 C 71.420087,40.817255 71.56942,40.774589 71.633429,40.774566 C 71.846753,40.774589 72.049419,40.827922 72.241429,40.934566 C 72.433419,41.019922 72.582752,41.169255 72.689429,41.382566 C 72.774752,41.617255 72.817419,41.990587 72.817429,42.502566 L 72.817429,50.086566 C 73.094752,50.235913 73.350751,50.427912 73.585429,50.662566 C 74.161417,51.217245 74.449417,51.899911 74.449429,52.710566 C 74.449417,53.521243 74.161417,54.203909 73.585429,54.758566 C 73.350751,54.993241 73.094752,55.185241 72.817429,55.334566 L 72.817429,63.206566 C 72.817419,63.569233 72.689419,63.867899 72.433429,64.102566 C 72.198752,64.337232 71.900086,64.454565 71.537429,64.454566 C 71.174753,64.454565 70.86542,64.337232 70.609429,64.102566 C 70.374754,63.867899 70.257421,63.569233 70.257429,63.206566 L 70.257429,55.334566 C 69.980088,55.185241 69.724088,54.993241 69.489429,54.758566 C 68.934756,54.203909 68.657423,53.521243 68.657429,52.710566 M 91.358214,52.646566 C 91.3582,53.755909 91.144867,54.801241 90.718214,55.782566 C 90.312868,56.742573 89.747535,57.585239 89.022214,58.310566 C 88.29687,59.035904 87.443537,59.611903 86.462214,60.038566 C 85.502206,60.443902 84.46754,60.646569 83.358214,60.646566 L 83.358214,63.206566 C 83.358208,63.569233 83.230208,63.867899 82.974214,64.102566 C 82.739542,64.337232 82.440876,64.454565 82.078214,64.454566 C 81.715543,64.454565 81.40621,64.337232 81.150214,64.102566 C 80.915544,63.867899 80.798211,63.569233 80.798214,63.206566 L 80.798214,42.118566 C 80.798211,41.755921 80.915544,41.446588 81.150214,41.190566 C 81.40621,40.934589 81.715543,40.806589 82.078214,40.806566 C 82.440876,40.806589 82.739542,40.934589 82.974214,41.190566 C 83.230208,41.446588 83.358208,41.755921 83.358214,42.118566 L 83.358214,44.646566 C 84.46754,44.646585 85.502206,44.859918 86.462214,45.286566 C 87.443537,45.691917 88.29687,46.25725 89.022214,46.982566 C 89.747535,47.707915 90.312868,48.561248 90.718214,49.542566 C 91.144867,50.502579 91.3582,51.537245 91.358214,52.646566 M 88.830214,52.678566 C 88.830203,51.931911 88.68087,51.227912 88.382214,50.566566 C 88.10487,49.905246 87.710204,49.329247 87.198214,48.838566 C 86.707538,48.326581 86.131539,47.931915 85.470214,47.654566 C 84.808873,47.355915 84.104874,47.206582 83.358214,47.206566 L 83.358214,58.118566 C 84.104874,58.118571 84.808873,57.979905 85.470214,57.702566 C 86.131539,57.403905 86.707538,57.009239 87.198214,56.518566 C 87.710204,56.027907 88.10487,55.451907 88.382214,54.790566 C 88.68087,54.129242 88.830203,53.425243 88.830214,52.678566 M 102.94472,52.646566 C 102.94471,52.241244 103.08338,51.899911 103.36072,51.622566 C 103.63804,51.345245 103.97938,51.206578 104.38472,51.206566 C 104.79004,51.206578 105.13138,51.345245 105.40872,51.622566 C 105.68604,51.899911 105.82471,52.241244 105.82472,52.646566 C 105.82471,53.05191 105.68604,53.393243 105.40872,53.670566 C 105.13138,53.947909 104.79004,54.086575 104.38472,54.086566 C 103.97938,54.086575 103.63804,53.947909 103.36072,53.670566 C 103.08338,53.393243 102.94471,53.05191 102.94472,52.646566 M 109.92072,52.646566 C 109.9207,53.755909 109.70737,54.801241 109.28072,55.782566 C 108.87537,56.742573 108.31004,57.585239 107.58472,58.310566 C 106.85937,59.035904 106.00604,59.611903 105.02472,60.038566 C 104.06471,60.443902 103.03004,60.646569 101.92072,60.646566 L 101.92072,63.206566 C 101.92071,63.569233 101.79271,63.867899 101.53672,64.102566 C 101.30205,64.337232 101.00338,64.454565 100.64072,64.454566 C 100.27805,64.454565 99.968707,64.337232 99.712717,64.102566 C 99.478047,63.867899 99.360707,63.569233 99.360717,63.206566 L 99.360717,42.118566 C 99.360707,41.755921 99.478047,41.446588 99.712717,41.190566 C 99.968707,40.934589 100.27805,40.806589 100.64072,40.806566 C 101.00338,40.806589 101.30205,40.934589 101.53672,41.190566 C 101.79271,41.446588 101.92071,41.755921 101.92072,42.118566 L 101.92072,44.646566 C 103.03004,44.646585 104.06471,44.859918 105.02472,45.286566 C 106.00604,45.691917 106.85937,46.25725 107.58472,46.982566 C 108.31004,47.707915 108.87537,48.561248 109.28072,49.542566 C 109.70737,50.502579 109.9207,51.537245 109.92072,52.646566 M 107.39272,52.678566 C 107.39271,51.931911 107.24337,51.227912 106.94472,50.566566 C 106.66737,49.905246 106.27271,49.329247 105.76072,48.838566 C 105.27004,48.326581 104.69404,47.931915 104.03272,47.654566 C 103.37138,47.355915 102.66738,47.206582 101.92072,47.206566 L 101.92072,58.118566 C 102.66738,58.118571 103.37138,57.979905 104.03272,57.702566 C 104.69404,57.403905 105.27004,57.009239 105.76072,56.518566 C 106.27271,56.027907 106.66737,55.451907 106.94472,54.790566 C 107.24337,54.129242 107.39271,53.425243 107.39272,52.678566 M 117.92893,52.646566 C 117.92893,52.091911 118.0676,51.590578 118.34493,51.142566 C 118.62226,50.673245 118.99559,50.321246 119.46493,50.086566 L 119.46493,42.118566 C 119.46493,41.755921 119.58226,41.446588 119.81693,41.190566 C 120.07293,40.934589 120.38226,40.806589 120.74493,40.806566 C 121.10759,40.806589 121.41692,40.934589 121.67293,41.190566 C 121.92892,41.446588 122.05692,41.755921 122.05693,42.118566 C 122.05692,42.289254 122.04626,42.39592 122.02493,42.438566 L 122.02493,50.022566 C 122.51559,50.257246 122.92092,50.609246 123.24093,51.078566 C 123.56092,51.547911 123.72092,52.070577 123.72093,52.646566 C 123.72092,53.24391 123.56092,53.777242 123.24093,54.246566 C 122.92092,54.694575 122.51559,55.035908 122.02493,55.270566 L 122.02493,63.206566 C 122.02492,63.569233 121.89692,63.867899 121.64093,64.102566 C 121.40626,64.337232 121.10759,64.454565 120.74493,64.454566 C 120.38226,64.454565 120.07293,64.337232 119.81693,64.102566 C 119.58226,63.867899 119.46493,63.569233 119.46493,63.206566 L 119.46493,55.206566 C 118.99559,54.971908 118.62226,54.630575 118.34493,54.182566 C 118.0676,53.713242 117.92893,53.201243 117.92893,52.646566 M 144.17199,42.118566 C 144.17197,41.755921 144.29997,41.446588 144.55599,41.190566 C 144.81197,40.913255 145.12131,40.774589 145.48399,40.774566 C 145.84664,40.774589 146.15597,40.902589 146.41199,41.158566 C 146.66797,41.393255 146.80664,41.691921 146.82799,42.054566 L 146.85999,42.054566 C 146.85997,43.761252 146.53997,45.371917 145.89999,46.886566 C 145.28131,48.379914 144.41731,49.70258 143.30799,50.854566 C 142.21998,52.006577 140.93998,52.934577 139.46799,53.638566 C 137.99598,54.342575 136.41732,54.737241 134.73199,54.822566 L 134.73199,63.206566 C 134.73198,63.569233 134.60398,63.867899 134.34799,64.102566 C 134.11332,64.337232 133.81465,64.454565 133.45199,64.454566 C 133.08932,64.454565 132.77999,64.337232 132.52399,64.102566 C 132.28932,63.867899 132.17199,63.569233 132.17199,63.206566 L 132.17199,42.118566 C 132.17199,41.755921 132.28932,41.446588 132.52399,41.190566 C 132.77999,40.934589 133.08932,40.806589 133.45199,40.806566 C 133.81465,40.806589 134.11332,40.934589 134.34799,41.190566 C 134.60398,41.446588 134.73198,41.755921 134.73199,42.118566 L 134.73199,47.430566 C 135.88398,47.153249 136.83332,46.54525 137.57999,45.606566 C 138.34798,44.667918 138.78531,43.494586 138.89199,42.086566 C 138.89198,41.723921 139.00931,41.425255 139.24399,41.190566 C 139.49998,40.934589 139.80931,40.806589 140.17199,40.806566 C 140.53465,40.806589 140.84398,40.934589 141.09999,41.190566 C 141.35598,41.425255 141.48398,41.723921 141.48399,42.086566 C 141.41998,43.25992 141.20664,44.273252 140.84399,45.126566 C 140.48131,45.979917 140.00131,46.747916 139.40399,47.430566 C 138.80665,48.091915 138.10265,48.646581 137.29199,49.094566 C 136.50265,49.54258 135.64932,49.841246 134.73199,49.990566 L 134.73199,52.262566 C 136.03332,52.177244 137.25998,51.857244 138.41199,51.302566 C 139.56398,50.726579 140.56665,49.990579 141.41999,49.094566 C 142.27331,48.177248 142.94531,47.121249 143.43599,45.926566 C 143.92664,44.731918 144.17197,43.462586 144.17199,42.118566 M 162.60093,42.150566 C 162.64358,43.409253 162.43025,44.582585 161.96093,45.670566 C 161.49158,46.758583 160.85158,47.707915 160.04093,48.518566 C 159.25159,49.329247 158.31292,49.969246 157.22493,50.438566 C 156.13692,50.907912 154.98492,51.142578 153.76893,51.142566 L 153.76893,63.206566 C 153.76892,63.569233 153.64092,63.867899 153.38493,64.102566 C 153.15026,64.337232 152.85159,64.454565 152.48893,64.454566 C 152.12626,64.454565 151.81693,64.337232 151.56093,64.102566 C 151.32626,63.867899 151.20893,63.569233 151.20893,63.206566 L 151.20893,42.118566 C 151.20893,41.755921 151.32626,41.446588 151.56093,41.190566 C 151.81693,40.934589 152.12626,40.806589 152.48893,40.806566 C 152.85159,40.806589 153.15026,40.934589 153.38493,41.190566 C 153.64092,41.446588 153.76892,41.755921 153.76893,42.118566 L 153.76893,48.518566 C 154.62226,48.518581 155.42226,48.358581 156.16893,48.038566 C 156.93692,47.697248 157.60892,47.238582 158.18493,46.662566 C 158.76092,46.086583 159.20892,45.414584 159.52893,44.646566 C 159.87025,43.878586 160.04092,43.046586 160.04093,42.150566 C 160.04092,41.787921 160.15825,41.478588 160.39293,41.222566 C 160.64892,40.966588 160.95825,40.838589 161.32093,40.838566 C 161.68358,40.838589 161.98225,40.966588 162.21693,41.222566 C 162.47292,41.478588 162.60092,41.787921 162.60093,42.150566 M 155.40093,43.334566 C 155.40092,42.97192 155.51826,42.673253 155.75293,42.438566 C 156.00892,42.182587 156.31826,42.054587 156.68093,42.054566 C 157.04359,42.054587 157.34225,42.182587 157.57693,42.438566 C 157.83292,42.673253 157.96092,42.97192 157.96093,43.334566 C 157.96092,43.697252 157.83292,44.006585 157.57693,44.262566 C 157.34225,44.497252 157.04359,44.614585 156.68093,44.614566 C 156.31826,44.614585 156.00892,44.497252 155.75293,44.262566 C 155.51826,44.006585 155.40092,43.697252 155.40093,43.334566 M 173.35486,50.310566 L 173.35486,42.118566 C 173.35485,41.755921 173.47219,41.446588 173.70686,41.190566 C 173.96285,40.934589 174.27218,40.806589 174.63486,40.806566 C 174.99752,40.806589 175.30685,40.934589 175.56286,41.190566 C 175.81885,41.446588 175.94685,41.755921 175.94686,42.118566 L 175.91486,50.374566 L 179.53086,48.262566 C 179.74418,48.134581 179.96818,48.070581 180.20286,48.070566 C 180.43751,48.070581 180.66151,48.134581 180.87486,48.262566 C 181.08818,48.390581 181.23751,48.561248 181.32286,48.774566 C 181.42951,48.987914 181.48284,49.179914 181.48286,49.350566 C 181.48284,49.54258 181.42951,49.745246 181.32286,49.958566 C 181.21618,50.171913 181.04551,50.342579 180.81086,50.470566 L 177.22686,52.550566 L 180.84286,54.630566 C 181.07751,54.758575 181.23751,54.907908 181.32286,55.078566 C 181.42951,55.227908 181.48284,55.419907 181.48286,55.654566 C 181.48284,55.910574 181.41884,56.14524 181.29086,56.358566 C 181.16284,56.571906 181.02418,56.721239 180.87486,56.806566 C 180.72551,56.891906 180.59751,56.945239 180.49086,56.966566 C 180.40551,56.987906 180.30951,56.998572 180.20286,56.998566 C 179.98951,56.998572 179.78685,56.945239 179.59486,56.838566 L 175.91486,54.726566 L 175.91486,63.206566 C 175.91485,63.569233 175.78685,63.867899 175.53086,64.102566 C 175.29618,64.337232 174.99752,64.454565 174.63486,64.454566 C 174.27218,64.454565 173.96285,64.337232 173.70686,64.102566 C 173.47219,63.867899 173.35485,63.569233 173.35486,63.206566 L 173.35486,54.790566 L 169.73886,56.838566 C 169.54686,56.945239 169.34419,56.998572 169.13086,56.998566 C 169.02419,56.998572 168.91752,56.987906 168.81086,56.966566 C 168.72552,56.945239 168.60819,56.891906 168.45886,56.806566 C 168.30952,56.721239 168.17086,56.571906 168.04286,56.358566 C 167.91486,56.14524 167.85086,55.910574 167.85086,55.654566 C 167.85086,55.419907 167.89352,55.227908 167.97886,55.078566 C 168.08552,54.907908 168.25619,54.758575 168.49086,54.630566 L 172.13886,52.550566 L 168.52286,50.438566 C 168.28819,50.310579 168.11752,50.139913 168.01086,49.926566 C 167.90419,49.713246 167.85086,49.51058 167.85086,49.318566 C 167.85086,49.147914 167.89352,48.955914 167.97886,48.742566 C 168.08552,48.529248 168.24552,48.358581 168.45886,48.230566 C 168.67219,48.102581 168.89619,48.038581 169.13086,48.038566 C 169.34419,48.038581 169.56819,48.102581 169.80286,48.230566 L 173.35486,50.310566 M 189.93214,42.118566 C 189.93214,41.755921 190.04947,41.446588 190.28414,41.190566 C 190.54014,40.934589 190.84947,40.806589 191.21214,40.806566 C 191.5748,40.806589 191.87347,40.934589 192.10814,41.190566 C 192.36413,41.446588 192.49213,41.755921 192.49214,42.118566 L 192.49214,63.206566 C 192.49213,63.569233 192.36413,63.867899 192.10814,64.102566 C 191.87347,64.337232 191.5748,64.454565 191.21214,64.454566 C 190.84947,64.454565 190.54014,64.337232 190.28414,64.102566 C 190.04947,63.867899 189.93214,63.569233 189.93214,63.206566 L 189.93214,42.118566 M 213.61879,42.150566 C 213.66144,43.409253 213.44811,44.582585 212.97879,45.670566 C 212.50944,46.758583 211.86944,47.707915 211.05879,48.518566 C 210.26945,49.329247 209.33078,49.969246 208.24279,50.438566 C 207.15478,50.907912 206.00278,51.142578 204.78679,51.142566 L 204.78679,63.206566 C 204.78678,63.569233 204.65878,63.867899 204.40279,64.102566 C 204.16812,64.337232 203.86945,64.454565 203.50679,64.454566 C 203.14412,64.454565 202.83479,64.337232 202.57879,64.102566 C 202.34412,63.867899 202.22679,63.569233 202.22679,63.206566 L 202.22679,42.118566 C 202.22679,41.755921 202.34412,41.446588 202.57879,41.190566 C 202.83479,40.934589 203.14412,40.806589 203.50679,40.806566 C 203.86945,40.806589 204.16812,40.934589 204.40279,41.190566 C 204.65878,41.446588 204.78678,41.755921 204.78679,42.118566 L 204.78679,48.518566 C 205.64012,48.518581 206.44012,48.358581 207.18679,48.038566 C 207.95478,47.697248 208.62678,47.238582 209.20279,46.662566 C 209.77878,46.086583 210.22678,45.414584 210.54679,44.646566 C 210.88811,43.878586 211.05878,43.046586 211.05879,42.150566 C 211.05878,41.787921 211.17611,41.478588 211.41079,41.222566 C 211.66678,40.966588 211.97611,40.838589 212.33879,40.838566 C 212.70144,40.838589 213.00011,40.966588 213.23479,41.222566 C 213.49078,41.478588 213.61878,41.787921 213.61879,42.150566 M 229.04014,45.062566 C 229.44546,45.339917 229.64813,45.702584 229.64814,46.150566 C 229.64813,46.38525 229.58413,46.60925 229.45614,46.822566 C 229.34946,47.014582 229.18946,47.163916 228.97614,47.270566 C 228.78413,47.377249 228.58146,47.430582 228.36814,47.430566 C 228.13346,47.430582 227.90946,47.366582 227.69614,47.238566 L 222.99214,44.390566 L 222.99214,63.206566 C 222.99213,63.569233 222.86413,63.867899 222.60814,64.102566 C 222.37347,64.337232 222.0748,64.454565 221.71214,64.454566 C 221.34947,64.454565 221.04014,64.337232 220.78414,64.102566 C 220.54947,63.867899 220.43214,63.569233 220.43214,63.206566 L 220.43214,42.502566 C 220.43214,41.990587 220.4748,41.617255 220.56014,41.382566 C 220.6668,41.169255 220.81614,41.019922 221.00814,40.934566 C 221.20014,40.827922 221.4028,40.774589 221.61614,40.774566 C 221.68014,40.774589 221.74414,40.785255 221.80814,40.806566 C 221.87214,40.806589 221.9468,40.817255 222.03214,40.838566 C 222.11747,40.881255 222.19214,40.923922 222.25614,40.966566 C 222.34147,40.987922 222.4268,41.030588 222.51214,41.094566 L 225.04014,42.630566 L 229.04014,45.062566 M 243.54822,47.430566 C 244.70021,47.153249 245.66021,46.555916 246.42822,45.638566 C 247.21754,44.699918 247.65487,43.611919 247.74022,42.374566 C 247.71887,42.33192 247.7082,42.235921 247.70822,42.086566 C 247.7082,41.723921 247.82554,41.425255 248.06022,41.190566 C 248.3162,40.934589 248.62554,40.806589 248.98822,40.806566 C 249.35087,40.806589 249.6602,40.934589 249.91622,41.190566 C 250.1722,41.425255 250.3002,41.723921 250.30022,42.086566 C 250.3002,42.257254 250.28954,42.36392 250.26822,42.406566 C 250.22554,43.366586 250.02287,44.273252 249.66022,45.126566 C 249.29754,45.979917 248.81754,46.747916 248.22022,47.430566 C 247.62287,48.091915 246.91887,48.646581 246.10822,49.094566 C 245.31887,49.54258 244.46554,49.841246 243.54822,49.990566 L 243.54822,63.206566 C 243.54821,63.569233 243.42021,63.867899 243.16422,64.102566 C 242.92954,64.337232 242.63088,64.454565 242.26822,64.454566 C 241.90554,64.454565 241.59621,64.337232 241.34022,64.102566 C 241.10554,63.867899 240.98821,63.569233 240.98822,63.206566 L 240.98822,49.990566 C 240.02821,49.841246 239.14288,49.531913 238.33222,49.062566 C 237.52155,48.593248 236.80688,48.006581 236.18822,47.302566 C 235.59088,46.598583 235.12155,45.80925 234.78022,44.934566 C 234.43888,44.038585 234.26822,43.089253 234.26822,42.086566 C 234.26822,41.723921 234.38555,41.425255 234.62022,41.190566 C 234.87622,40.934589 235.18555,40.806589 235.54822,40.806566 C 235.91088,40.806589 236.22022,40.934589 236.47622,41.190566 C 236.73222,41.425255 236.86022,41.723921 236.86022,42.086566 L 236.82822,42.374566 C 236.84955,42.993253 236.96688,43.579919 237.18022,44.134566 C 237.41488,44.667918 237.71355,45.158584 238.07622,45.606566 C 238.46021,46.03325 238.89755,46.406583 239.38822,46.726566 C 239.87888,47.025249 240.41221,47.249249 240.98822,47.398566 L 240.98822,42.118566 C 240.98821,41.755921 241.10554,41.446588 241.34022,41.190566 C 241.59621,40.934589 241.90554,40.806589 242.26822,40.806566 C 242.63088,40.806589 242.92954,40.934589 243.16422,41.190566 C 243.42021,41.446588 243.54821,41.755921 243.54822,42.118566 L 243.54822,47.430566 M 263.48322,63.206566 C 263.48321,63.569233 263.35521,63.867899 263.09922,64.102566 C 262.86455,64.337232 262.56588,64.454565 262.20322,64.454566 C 261.84055,64.454565 261.53122,64.337232 261.27522,64.102566 C 261.04055,63.867899 260.92322,63.569233 260.92322,63.206566 L 260.92322,42.118566 C 260.92322,41.755921 261.04055,41.446588 261.27522,41.190566 C 261.53122,40.934589 261.84055,40.806589 262.20322,40.806566 C 262.56588,40.806589 262.86455,40.934589 263.09922,41.190566 C 263.35521,41.446588 263.48321,41.755921 263.48322,42.118566 L 263.48322,50.406566 L 267.48322,52.838566 C 267.88854,53.11591 268.09121,53.478576 268.09122,53.926566 C 268.09121,54.161242 268.02721,54.385242 267.89922,54.598566 C 267.79254,54.790575 267.63254,54.939908 267.41922,55.046566 C 267.22721,55.153241 267.02454,55.206574 266.81122,55.206566 C 266.57654,55.206574 266.35254,55.142574 266.13922,55.014566 L 263.48322,53.414566 L 263.48322,63.206566 M 281.89336,55.814566 L 279.23736,57.414566 C 279.00269,57.542572 278.77869,57.606572 278.56536,57.606566 C 278.35202,57.606572 278.13869,57.553239 277.92536,57.446566 C 277.73336,57.339905 277.58402,57.190572 277.47736,56.998566 C 277.34936,56.785239 277.28536,56.56124 277.28536,56.326566 C 277.28536,56.134573 277.33869,55.931907 277.44536,55.718566 C 277.53069,55.505241 279.01336,54.587908 281.89336,52.966566 L 281.89336,50.246566 L 279.23736,51.846566 C 279.00269,51.974577 278.77869,52.038577 278.56536,52.038566 C 278.35202,52.038577 278.13869,51.985244 277.92536,51.878566 C 277.73336,51.771911 277.58402,51.622578 277.47736,51.430566 C 277.34936,51.217245 277.28536,50.993245 277.28536,50.758566 C 277.28536,50.310579 277.48802,49.947913 277.89336,49.670566 L 281.89336,47.238566 L 281.89336,42.150566 C 281.89335,41.787921 282.01069,41.478588 282.24536,41.222566 C 282.50135,40.966588 282.81069,40.838589 283.17336,40.838566 C 283.53602,40.838589 283.83468,40.966588 284.06936,41.222566 C 284.32535,41.478588 284.45335,41.787921 284.45336,42.150566 L 284.45336,63.238566 C 284.45335,63.601233 284.32535,63.899899 284.06936,64.134566 C 283.83468,64.369232 283.53602,64.486565 283.17336,64.486566 C 282.81069,64.486565 282.50135,64.369232 282.24536,64.134566 C 282.01069,63.899899 281.89335,63.601233 281.89336,63.238566 L 281.89336,55.814566 M 304.60872,57.670566 C 304.60871,58.545238 304.41671,59.355903 304.03272,60.102566 C 303.67004,60.849235 303.17938,61.499901 302.56072,62.054566 C 301.94204,62.609234 301.22738,63.046566 300.41672,63.366566 C 299.60605,63.686566 298.77405,63.846566 297.92072,63.846566 L 296.64072,63.846566 C 296.27805,63.846566 295.96872,63.729232 295.71272,63.494566 C 295.47805,63.238566 295.36072,62.929233 295.36072,62.566566 L 295.39272,42.758566 C 295.39272,42.39592 295.51005,42.086587 295.74472,41.830566 C 296.00072,41.574588 296.31005,41.446588 296.67272,41.446566 L 297.92072,41.446566 C 298.77405,41.446588 299.60605,41.617255 300.41672,41.958566 C 301.22738,42.29992 301.94204,42.769253 302.56072,43.366566 C 303.17938,43.942586 303.67004,44.625252 304.03272,45.414566 C 304.41671,46.182583 304.60871,46.993249 304.60872,47.846566 C 304.60871,48.870581 304.38471,49.819913 303.93672,50.694566 C 303.51004,51.547911 302.92338,52.251911 302.17672,52.806566 C 302.92338,53.382576 303.51004,54.086575 303.93672,54.918566 C 304.38471,55.72924 304.60871,56.646573 304.60872,57.670566 M 302.04872,47.846566 C 302.04871,47.334582 301.92071,46.854583 301.66472,46.406566 C 301.43004,45.93725 301.12071,45.531917 300.73672,45.190566 C 300.35271,44.827918 299.91538,44.539918 299.42472,44.326566 C 298.93405,44.113252 298.43271,44.006585 297.92072,44.006566 L 297.92072,51.366566 L 298.04872,51.366566 C 298.53938,51.345245 299.01938,51.249245 299.48872,51.078566 C 299.97938,50.886579 300.40605,50.641245 300.76872,50.342566 C 301.15271,50.022579 301.46204,49.649246 301.69672,49.222566 C 301.93138,48.795914 302.04871,48.337248 302.04872,47.846566 M 302.04872,57.670566 C 302.04871,57.158572 301.92071,56.678573 301.66472,56.230566 C 301.43004,55.782574 301.12071,55.387907 300.73672,55.046566 C 300.35271,54.705241 299.91538,54.438575 299.42472,54.246566 C 298.93405,54.033242 298.43271,53.926576 297.92072,53.926566 L 297.92072,61.286566 C 298.43271,61.286568 298.93405,61.190568 299.42472,60.998566 C 299.91538,60.806569 300.35271,60.550569 300.73672,60.230566 C 301.12071,59.91057 301.43004,59.537237 301.66472,59.110566 C 301.92071,58.662571 302.04871,58.182571 302.04872,57.670566 M 298.43272,57.670566 C 298.43271,57.307905 298.55005,57.009239 298.78472,56.774566 C 299.04071,56.518573 299.35005,56.390573 299.71272,56.390566 C 300.07538,56.390573 300.37405,56.518573 300.60872,56.774566 C 300.86471,57.009239 300.99271,57.307905 300.99272,57.670566 C 300.99271,58.033238 300.86471,58.342571 300.60872,58.598566 C 300.37405,58.833237 300.07538,58.950571 299.71272,58.950566 C 299.35005,58.950571 299.04071,58.833237 298.78472,58.598566 C 298.55005,58.342571 298.43271,58.033238 298.43272,57.670566 M 298.43272,47.846566 C 298.43271,47.483915 298.55005,47.185249 298.78472,46.950566 C 299.04071,46.694583 299.35005,46.566583 299.71272,46.566566 C 300.07538,46.566583 300.37405,46.694583 300.60872,46.950566 C 300.86471,47.185249 300.99271,47.483915 300.99272,47.846566 C 300.99271,48.209248 300.86471,48.518581 300.60872,48.774566 C 300.37405,49.009247 300.07538,49.12658 299.71272,49.126566 C 299.35005,49.12658 299.04071,49.009247 298.78472,48.774566 C 298.55005,48.518581 298.43271,48.209248 298.43272,47.846566 M 326.967,42.150566 C 327.00965,43.409253 326.79632,44.582585 326.327,45.670566 C 325.85765,46.758583 325.21765,47.707915 324.407,48.518566 C 323.61766,49.329247 322.67899,49.969246 321.591,50.438566 C 320.50299,50.907912 319.35099,51.142578 318.135,51.142566 L 318.135,63.206566 C 318.13499,63.569233 318.00699,63.867899 317.751,64.102566 C 317.51633,64.337232 317.21766,64.454565 316.855,64.454566 C 316.49233,64.454565 316.183,64.337232 315.927,64.102566 C 315.69233,63.867899 315.575,63.569233 315.575,63.206566 L 315.575,42.118566 C 315.575,41.755921 315.69233,41.446588 315.927,41.190566 C 316.183,40.934589 316.49233,40.806589 316.855,40.806566 C 317.21766,40.806589 317.51633,40.934589 317.751,41.190566 C 318.00699,41.446588 318.13499,41.755921 318.135,42.118566 L 318.135,48.518566 C 318.98833,48.518581 319.78833,48.358581 320.535,48.038566 C 321.30299,47.697248 321.97499,47.238582 322.551,46.662566 C 323.12699,46.086583 323.57499,45.414584 323.895,44.646566 C 324.23632,43.878586 324.40699,43.046586 324.407,42.150566 C 324.40699,41.787921 324.52432,41.478588 324.759,41.222566 C 325.01499,40.966588 325.32432,40.838589 325.687,40.838566 C 326.04965,40.838589 326.34832,40.966588 326.583,41.222566 C 326.83899,41.478588 326.96699,41.787921 326.967,42.150566 M 336.37236,44.390566 L 336.37236,63.206566 C 336.37235,63.569233 336.24435,63.867899 335.98836,64.102566 C 335.75369,64.337232 335.45502,64.454565 335.09236,64.454566 C 334.72969,64.454565 334.42036,64.337232 334.16436,64.102566 C 333.92969,63.867899 333.81236,63.569233 333.81236,63.206566 L 333.81236,42.502566 C 333.81236,41.905254 333.85502,41.531921 333.94036,41.382566 C 334.04702,41.169255 334.19636,41.019922 334.38836,40.934566 C 334.58036,40.827922 334.78302,40.774589 334.99636,40.774566 C 335.06036,40.774589 335.12436,40.785255 335.18836,40.806566 C 335.25236,40.806589 335.32702,40.817255 335.41236,40.838566 C 335.49769,40.881255 335.57236,40.923922 335.63636,40.966566 C 335.72169,40.987922 335.80702,41.030588 335.89236,41.094566 L 343.31636,45.606566 C 343.57235,45.798584 343.75368,46.043917 343.86036,46.342566 C 343.94568,46.491916 343.98835,46.673249 343.98836,46.886566 C 343.98835,47.206582 343.87101,47.483915 343.63636,47.718566 L 340.46836,51.686566 L 345.23636,62.886566 C 345.25768,62.993233 345.26835,63.089233 345.26836,63.174566 C 345.28968,63.2599 345.28968,63.355899 345.26836,63.462566 C 345.26835,63.953232 344.94835,64.273232 344.30836,64.422566 C 344.28701,64.443898 344.18035,64.454565 343.98836,64.454566 C 343.68968,64.454565 343.43368,64.369232 343.22036,64.198566 C 343.02835,64.027899 342.87901,63.803899 342.77236,63.526566 L 337.90836,52.422566 C 337.69502,52.209244 337.58835,51.910578 337.58836,51.526566 C 337.58835,51.142578 337.70569,50.833245 337.94036,50.598566 L 340.75636,47.046566 L 336.37236,44.390566 M 352.46979,52.678566 C 352.46979,52.102577 352.60845,51.579911 352.88579,51.110566 C 353.18445,50.641245 353.57912,50.289246 354.06979,50.054566 L 354.06979,42.118566 C 354.06979,41.755921 354.18712,41.446588 354.42179,41.190566 C 354.67779,40.934589 354.98712,40.806589 355.34979,40.806566 C 355.71245,40.806589 356.01112,40.934589 356.24579,41.190566 C 356.50178,41.446588 356.62978,41.755921 356.62979,42.118566 L 356.62979,50.054566 C 357.12045,50.289246 357.51512,50.641245 357.81379,51.110566 C 358.11245,51.579911 358.26178,52.102577 358.26179,52.678566 C 358.26178,53.489243 357.97378,54.171909 357.39779,54.726566 C 356.84312,55.281241 356.16045,55.558574 355.34979,55.558566 C 354.53912,55.558574 353.85645,55.281241 353.30179,54.726566 C 352.74712,54.171909 352.46979,53.489243 352.46979,52.678566 M 370.1035,41.094566 C 370.18882,41.030588 370.26349,40.987922 370.3275,40.966566 C 370.41282,40.923922 370.49816,40.881255 370.5835,40.838566 C 370.66882,40.817255 370.74349,40.806589 370.8075,40.806566 C 370.87149,40.785255 370.93549,40.774589 370.9995,40.774566 C 371.21282,40.774589 371.41549,40.827922 371.6075,40.934566 C 371.79949,41.019922 371.94882,41.169255 372.0555,41.382566 C 372.14082,41.574588 372.18349,41.947921 372.1835,42.502566 L 372.1835,63.206566 C 372.18349,63.569233 372.05549,63.867899 371.7995,64.102566 C 371.56482,64.337232 371.26616,64.454565 370.9035,64.454566 C 370.54082,64.454565 370.23149,64.337232 369.9755,64.102566 C 369.74083,63.867899 369.62349,63.569233 369.6235,63.206566 L 369.6235,44.390566 L 364.9195,47.238566 C 364.68483,47.366582 364.46083,47.430582 364.2475,47.430566 C 364.03416,47.430582 363.82083,47.377249 363.6075,47.270566 C 363.4155,47.163916 363.26617,47.014582 363.1595,46.822566 C 363.0315,46.60925 362.9675,46.38525 362.9675,46.150566 C 362.9675,45.702584 363.17017,45.339917 363.5755,45.062566 L 367.5755,42.630566 L 370.1035,41.094566 M 387.57064,49.510566 C 387.52796,48.763914 387.33596,48.059915 386.99464,47.398566 C 386.6533,46.715916 386.2053,46.12925 385.65064,45.638566 C 385.09596,45.126584 384.45596,44.731918 383.73064,44.454566 C 383.02663,44.155919 382.3013,44.006585 381.55464,44.006566 L 381.55464,63.206566 C 381.55463,63.569233 381.42663,63.867899 381.17064,64.102566 C 380.93597,64.337232 380.6373,64.454565 380.27464,64.454566 C 379.91197,64.454565 379.60264,64.337232 379.34664,64.102566 C 379.11197,63.867899 378.99464,63.569233 378.99464,63.206566 L 378.99464,42.726566 C 378.99464,42.36392 379.11197,42.054587 379.34664,41.798566 C 379.60264,41.542588 379.91197,41.414588 380.27464,41.414566 L 381.55464,41.414566 C 382.64263,41.435921 383.69863,41.659921 384.72264,42.086566 C 385.76796,42.513254 386.6853,43.09992 387.47464,43.846566 C 388.28529,44.571918 388.92529,45.425251 389.39464,46.406566 C 389.88529,47.387915 390.15196,48.422581 390.19464,49.510566 L 391.44264,63.206566 C 391.44262,63.569233 391.31462,63.867899 391.05864,64.102566 C 390.82396,64.337232 390.52529,64.454565 390.16264,64.454566 C 389.79996,64.454565 389.49063,64.337232 389.23464,64.102566 C 388.99996,63.867899 388.88263,63.569233 388.88264,63.206566 L 387.57064,49.510566 M 409.58558,42.182566 C 409.58556,41.819921 409.71356,41.510588 409.96958,41.254566 C 410.22556,40.977255 410.5349,40.838589 410.89758,40.838566 C 411.26023,40.838589 411.56956,40.966588 411.82558,41.222566 C 412.08156,41.457255 412.22023,41.755921 412.24158,42.118566 L 412.27358,42.118566 C 412.27356,43.825252 411.91089,45.435917 411.18558,46.950566 C 410.48156,48.443914 409.52156,49.76658 408.30558,50.918566 C 407.1109,52.049244 405.7349,52.966576 404.17758,53.670566 C 402.62024,54.353242 400.99891,54.737241 399.31358,54.822566 L 399.31358,63.206566 C 399.31357,63.569233 399.18557,63.867899 398.92958,64.102566 C 398.69491,64.337232 398.39624,64.454565 398.03358,64.454566 C 397.67091,64.454565 397.36158,64.337232 397.10558,64.102566 C 396.87091,63.867899 396.75358,63.569233 396.75358,63.206566 L 396.75358,42.118566 C 396.75358,41.755921 396.87091,41.446588 397.10558,41.190566 C 397.36158,40.934589 397.67091,40.806589 398.03358,40.806566 C 398.39624,40.806589 398.69491,40.934589 398.92958,41.190566 C 399.18557,41.446588 399.31357,41.755921 399.31358,42.118566 L 399.31358,47.430566 C 399.88957,47.302582 400.46557,47.089249 401.04158,46.790566 C 401.61757,46.470583 402.12957,46.086583 402.57758,45.638566 C 403.0469,45.190584 403.4309,44.699918 403.72958,44.166566 C 404.04957,43.611919 404.24157,42.93992 404.30558,42.150566 C 404.30557,41.787921 404.4229,41.489255 404.65758,41.254566 C 404.91357,40.998588 405.2229,40.870589 405.58558,40.870566 C 405.94823,40.870589 406.25757,40.998588 406.51358,41.254566 C 406.76957,41.489255 406.89757,41.787921 406.89758,42.150566 C 406.83357,43.323919 406.57757,44.337252 406.12958,45.190566 C 405.68157,46.043917 405.10557,46.801249 404.40158,47.462566 C 403.69757,48.123915 402.89757,48.678581 402.00158,49.126566 C 401.12691,49.553247 400.23091,49.841246 399.31358,49.990566 L 399.31358,52.262566 C 400.61491,52.177244 401.88424,51.857244 403.12158,51.302566 C 404.3589,50.726579 405.45757,49.990579 406.41758,49.094566 C 407.37757,48.198581 408.14557,47.163916 408.72158,45.990566 C 409.29756,44.795918 409.58556,43.526586 409.58558,42.182566 M 400.40158,42.726566 C 400.40157,42.36392 400.51891,42.065254 400.75358,41.830566 C 401.00957,41.574588 401.31891,41.446588 401.68158,41.446566 C 402.04424,41.446588 402.3429,41.574588 402.57758,41.830566 C 402.83357,42.065254 402.96157,42.36392 402.96158,42.726566 C 402.96157,43.089253 402.83357,43.398586 402.57758,43.654566 C 402.3429,43.889252 402.04424,44.006585 401.68158,44.006566 C 401.31891,44.006585 401.00957,43.889252 400.75358,43.654566 C 400.51891,43.398586 400.40157,43.089253 400.40158,42.726566 M 423.45893,63.174566 C 423.45892,63.537233 423.33092,63.835899 423.07493,64.070566 C 422.84025,64.326565 422.54159,64.454565 422.17893,64.454566 C 421.81625,64.454565 421.50692,64.326565 421.25093,64.070566 C 421.01625,63.835899 420.89892,63.537233 420.89893,63.174566 L 420.89893,57.894566 C 420.32292,58.043905 419.78959,58.278571 419.29893,58.598566 C 418.80826,58.897237 418.37092,59.27057 417.98693,59.718566 C 417.62426,60.145236 417.32559,60.635902 417.09093,61.190566 C 416.87759,61.745234 416.76026,62.321234 416.73893,62.918566 L 416.77093,63.206566 C 416.77093,63.569233 416.64293,63.867899 416.38693,64.102566 C 416.13093,64.337232 415.82159,64.454565 415.45893,64.454566 C 415.09626,64.454565 414.78693,64.337232 414.53093,64.102566 C 414.29626,63.867899 414.17893,63.569233 414.17893,63.206566 C 414.17893,62.225234 414.34959,61.286568 414.69093,60.390566 C 415.03226,59.49457 415.50159,58.694571 416.09893,57.990566 C 416.71759,57.286572 417.43226,56.699906 418.24293,56.230566 C 419.05359,55.76124 419.93892,55.451907 420.89893,55.302566 L 420.89893,42.086566 C 420.89892,41.723921 421.01625,41.425255 421.25093,41.190566 C 421.50692,40.934589 421.81625,40.806589 422.17893,40.806566 C 422.54159,40.806589 422.84025,40.934589 423.07493,41.190566 C 423.33092,41.425255 423.45892,41.723921 423.45893,42.086566 L 423.45893,55.302566 C 424.37625,55.451907 425.22958,55.750574 426.01893,56.198566 C 426.82958,56.646573 427.53358,57.211906 428.13093,57.894566 C 428.72825,58.555904 429.20825,59.313237 429.57093,60.166566 C 429.93358,61.019902 430.14691,62.033234 430.21093,63.206566 C 430.21091,63.569233 430.08291,63.867899 429.82693,64.102566 C 429.57091,64.337232 429.26158,64.454565 428.89893,64.454566 C 428.53625,64.454565 428.22691,64.337232 427.97093,64.102566 C 427.73625,63.867899 427.61891,63.569233 427.61893,63.206566 C 427.61891,63.057233 427.62958,62.961233 427.65093,62.918566 C 427.56558,61.681234 427.12825,60.603902 426.33893,59.686566 C 425.57092,58.747904 424.61092,58.139905 423.45893,57.862566 L 423.45893,63.174566 M 438.54786,54.630566 C 438.46252,54.694575 438.37719,54.747908 438.29186,54.790566 C 438.22786,54.811908 438.15319,54.843908 438.06786,54.886566 C 437.98252,54.907908 437.90786,54.929241 437.84386,54.950566 C 437.77986,54.950575 437.71586,54.950575 437.65186,54.950566 C 437.43852,54.950575 437.23586,54.907908 437.04386,54.822566 C 436.85186,54.715908 436.70252,54.555908 436.59586,54.342566 C 436.51052,54.171909 436.46786,53.798576 436.46786,53.222566 L 436.46786,42.022566 C 436.46786,41.659921 436.58519,41.361255 436.81986,41.126566 C 437.07586,40.891922 437.38519,40.774589 437.74786,40.774566 C 438.11052,40.774589 438.40919,40.891922 438.64386,41.126566 C 438.89985,41.361255 439.02785,41.659921 439.02786,42.022566 L 439.02786,51.334566 L 443.73186,48.486566 C 443.94518,48.358581 444.16918,48.294581 444.40386,48.294566 C 444.61718,48.294581 444.81985,48.347914 445.01186,48.454566 C 445.22518,48.561248 445.38518,48.710581 445.49186,48.902566 C 445.61985,49.137247 445.68385,49.361247 445.68386,49.574566 C 445.68385,50.022579 445.48118,50.385246 445.07586,50.662566 L 441.07586,53.094566 L 438.54786,54.630566 M 456.42686,56.498183 C 456.19219,56.62619 455.96819,56.69019 455.75486,56.690183 C 455.54152,56.69019 455.32819,56.636856 455.11486,56.530183 C 454.92286,56.423523 454.77353,56.27419 454.66686,56.082183 C 454.53886,55.868857 454.47486,55.644857 454.47486,55.410183 C 454.47486,54.962191 454.67753,54.599525 455.08286,54.322183 L 459.08286,51.890183 L 459.08286,42.066183 C 459.08285,41.703538 459.20019,41.394205 459.43486,41.138183 C 459.69085,40.882206 460.00019,40.754206 460.36286,40.754183 C 460.72552,40.754206 461.02419,40.882206 461.25886,41.138183 C 461.51485,41.372872 461.64285,41.671538 461.64286,42.034183 L 461.64286,50.354183 L 464.36286,48.690183 C 464.57618,48.562198 464.81085,48.498198 465.06686,48.498183 C 465.28018,48.498198 465.48285,48.551531 465.67486,48.658183 C 465.86685,48.743531 466.01618,48.892864 466.12286,49.106183 C 466.25085,49.340864 466.31485,49.57553 466.31486,49.810183 C 466.31485,50.258196 466.11218,50.620862 465.70686,50.898183 C 465.60018,50.983529 465.50418,51.036862 465.41886,51.058183 L 461.64286,53.362183 L 461.64286,63.154183 C 461.64285,63.51685 461.51485,63.815516 461.25886,64.050183 C 461.02419,64.284849 460.72552,64.402182 460.36286,64.402183 C 460.00019,64.402182 459.69085,64.284849 459.43486,64.050183 C 459.20019,63.815516 459.08285,63.51685 459.08286,63.154183 L 459.08286,54.898183 L 456.42686,56.498183 M 481.05886,57.746183 L 478.40286,59.346183 C 478.16819,59.474187 477.94419,59.538187 477.73086,59.538183 C 477.51752,59.538187 477.30419,59.484854 477.09086,59.378183 C 476.89886,59.271521 476.74952,59.122187 476.64286,58.930183 C 476.51486,58.716854 476.45086,58.492855 476.45086,58.258183 C 476.45086,58.044855 476.49352,57.842189 476.57886,57.650183 C 476.68552,57.436856 476.84552,57.276856 477.05886,57.170183 L 481.05886,54.898183 L 481.05886,52.178183 L 478.40286,53.778183 C 478.16819,53.906193 477.94419,53.970193 477.73086,53.970183 C 477.51752,53.970193 477.30419,53.916859 477.09086,53.810183 C 476.89886,53.703526 476.74952,53.554193 476.64286,53.362183 C 476.51486,53.14886 476.45086,52.92486 476.45086,52.690183 C 476.45086,52.242194 476.65352,51.879528 477.05886,51.602183 L 481.05886,49.170183 L 481.05886,42.194183 C 481.05885,41.831538 481.17619,41.522205 481.41086,41.266183 C 481.66685,41.010206 481.97619,40.882206 482.33886,40.882183 C 482.70152,40.882206 483.00018,41.010206 483.23486,41.266183 C 483.49085,41.522205 483.61885,41.831538 483.61886,42.194183 L 483.61886,47.634183 L 486.33886,45.970183 C 486.55218,45.842201 486.78685,45.778201 487.04286,45.778183 C 487.25618,45.778201 487.45885,45.831534 487.65086,45.938183 C 487.84285,46.023534 487.99218,46.172867 488.09886,46.386183 C 488.22685,46.620867 488.29085,46.855533 488.29086,47.090183 C 488.29085,47.538199 488.08818,47.900865 487.68286,48.178183 C 487.61885,48.242198 487.52285,48.295532 487.39486,48.338183 L 483.61886,50.642183 L 483.61886,53.202183 L 486.33886,51.538183 C 486.55218,51.410195 486.78685,51.346195 487.04286,51.346183 C 487.25618,51.346195 487.45885,51.399528 487.65086,51.506183 C 487.84285,51.591528 487.99218,51.740861 488.09886,51.954183 C 488.22685,52.188861 488.29085,52.423527 488.29086,52.658183 C 488.29085,53.106193 488.08818,53.46886 487.68286,53.746183 C 487.61885,53.810193 487.52285,53.863526 487.39486,53.906183 L 483.61886,56.210183 L 483.61886,63.282183 C 483.61885,63.64485 483.49085,63.943516 483.23486,64.178183 C 483.00018,64.412849 482.70152,64.530182 482.33886,64.530183 C 481.97619,64.530182 481.66685,64.412849 481.41086,64.178183 C 481.17619,63.943516 481.05885,63.64485 481.05886,63.282183 L 481.05886,57.746183"
       id="text2709"
       style="font-size:24px;font-style:normal;font-variant:normal;font-weight:normal;font-stretch:normal;text-align:center;line-height:125%;writing-mode:lr-tb;text-anchor:middle;fill:#000000;fill-opacity:1;stroke:none;stroke-width:1px;stroke-linecap:butt;stroke-linejoin:miter;stroke-opacity:1;font-family:Lucida Grande;-inkscape-font-specification:Lucida Grande" />
    <path
       d="M 349.29821,10.150566 C 349.29821,9.7879212 349.41554,9.4785882 349.65021,9.2225662 C 349.90621,8.9665892 350.21554,8.8385892 350.57821,8.8385662 C 350.94087,8.8385892 351.2502,8.9665892 351.50621,9.2225662 C 351.7622,9.4785882 351.8902,9.7879212 351.89021,10.150566 L 351.89021,21.190566 L 359.21821,16.742566 C 359.43153,16.614581 359.6662,16.550581 359.92221,16.550566 C 360.13553,16.550581 360.3382,16.603914 360.53021,16.710566 C 360.7222,16.795914 360.87153,16.945247 360.97821,17.158566 C 361.02086,17.265247 361.05286,17.38258 361.07421,17.510566 C 361.11686,17.63858 361.13819,17.83058 361.13821,18.086566 L 361.13821,31.206566 C 361.13819,31.569233 361.02086,31.867899 360.78621,32.102566 C 360.55153,32.337232 360.25286,32.454565 359.89021,32.454566 C 359.52753,32.454565 359.2182,32.337232 358.96221,32.102566 C 358.72753,31.867899 358.6102,31.569233 358.61021,31.206566 L 358.61021,20.326566 L 351.28221,24.550566 C 351.04754,24.678573 350.82354,24.742573 350.61021,24.742566 C 350.39687,24.742573 350.18354,24.689239 349.97021,24.582566 C 349.77821,24.475906 349.62887,24.326573 349.52221,24.134566 C 349.37287,23.750574 349.30887,23.526574 349.33021,23.462566 L 349.29821,10.150566 M 405.19564,17.510566 C 405.15296,16.763914 404.96096,16.059915 404.61964,15.398566 C 404.2783,14.715916 403.8303,14.12925 403.27564,13.638566 C 402.72096,13.126584 402.08096,12.731918 401.35564,12.454566 C 400.65163,12.155919 399.9263,12.006585 399.17964,12.006566 L 399.17964,31.206566 C 399.17963,31.569233 399.05163,31.867899 398.79564,32.102566 C 398.56097,32.337232 398.2623,32.454565 397.89964,32.454566 C 397.53697,32.454565 397.22764,32.337232 396.97164,32.102566 C 396.73697,31.867899 396.61964,31.569233 396.61964,31.206566 L 396.61964,10.726566 C 396.61964,10.36392 396.73697,10.054587 396.97164,9.7985662 C 397.22764,9.5425882 397.53697,9.4145882 397.89964,9.4145662 L 399.17964,9.4145662 C 400.26763,9.4359212 401.32363,9.6599212 402.34764,10.086566 C 403.39296,10.513254 404.3103,11.09992 405.09964,11.846566 C 405.91029,12.571918 406.55029,13.425251 407.01964,14.406566 C 407.51029,15.387915 407.77696,16.422581 407.81964,17.510566 L 409.06764,31.206566 C 409.06762,31.569233 408.93962,31.867899 408.68364,32.102566 C 408.44896,32.337232 408.15029,32.454565 407.78764,32.454566 C 407.42496,32.454565 407.11563,32.337232 406.85964,32.102566 C 406.62496,31.867899 406.50763,31.569233 406.50764,31.206566 L 405.19564,17.510566 M 425.026,17.510566 C 424.98332,16.763914 424.79132,16.059915 424.45,15.398566 C 424.10866,14.715916 423.66066,14.12925 423.106,13.638566 C 422.55132,13.126584 421.91132,12.731918 421.186,12.454566 C 420.48199,12.155919 419.75666,12.006585 419.01,12.006566 L 419.01,31.206566 C 419.00999,31.569233 418.88199,31.867899 418.626,32.102566 C 418.39133,32.337232 418.09266,32.454565 417.73,32.454566 C 417.36733,32.454565 417.058,32.337232 416.802,32.102566 C 416.56733,31.867899 416.45,31.569233 416.45,31.206566 L 416.45,10.726566 C 416.45,10.36392 416.56733,10.054587 416.802,9.7985662 C 417.058,9.5425882 417.36733,9.4145882 417.73,9.4145662 L 419.01,9.4145662 C 420.09799,9.4359212 421.15399,9.6599212 422.178,10.086566 C 423.22332,10.513254 424.14066,11.09992 424.93,11.846566 C 425.74065,12.571918 426.38065,13.425251 426.85,14.406566 C 427.34065,15.387915 427.60732,16.422581 427.65,17.510566 L 428.898,31.206566 C 428.89798,31.569233 428.76998,31.867899 428.514,32.102566 C 428.27932,32.337232 427.98065,32.454565 427.618,32.454566 C 427.25532,32.454565 426.94599,32.337232 426.69,32.102566 C 426.45532,31.867899 426.33799,31.569233 426.338,31.206566 L 425.026,17.510566 M 420.674,20.678566 C 420.67399,20.273244 420.81266,19.931911 421.09,19.654566 C 421.36733,19.377245 421.70866,19.238578 422.114,19.238566 C 422.51932,19.238578 422.86066,19.377245 423.138,19.654566 C 423.41532,19.931911 423.55399,20.273244 423.554,20.678566 C 423.55399,21.08391 423.41532,21.425243 423.138,21.702566 C 422.86066,21.979909 422.51932,22.118575 422.114,22.118566 C 421.70866,22.118575 421.36733,21.979909 421.09,21.702566 C 420.81266,21.425243 420.67399,21.08391 420.674,20.678566"
       id="text2763"
       style="font-size:24px;font-style:normal;font-variant:normal;font-weight:normal;font-stretch:normal;text-align:center;line-height:125%;writing-mode:lr-tb;text-anchor:middle;fill:#000000;fill-opacity:1;stroke:none;stroke-width:1px;stroke-linecap:butt;stroke-linejoin:miter;stroke-opacity:1;font-family:Lucida Grande;-inkscape-font-specification:Lucida Grande" />
    <text
       x="14.31805"
       y="96.862183"
       id="text2383"
       xml:space="preserve"
       style="font-size:30px;font-style:normal;font-variant:normal;font-weight:normal;font-stretch:normal;text-align:center;line-height:125%;writing-mode:lr-tb;text-anchor:middle;fill:#000000;fill-opacity:1;stroke:none;stroke-width:1px;stroke-linecap:butt;stroke-linejoin:miter;stroke-opacity:1;font-family:DejaVu Serif;-inkscape-font-specification:DejaVu Serif"><tspan
         x="14.31805"
         y="96.862183"
         id="tspan2385"
         style="font-size:30px;font-style:normal;font-variant:normal;font-weight:normal;font-stretch:normal;font-family:DejaVu Serif;-inkscape-font-specification:DejaVu Serif">a</tspan></text>
    <text
       x="32.31805"
       y="96.862183"
       id="text2387"
       xml:space="preserve"
       style="font-size:30px;font-style:normal;font-variant:normal;font-weight:normal;font-stretch:normal;text-align:center;line-height:125%;writing-mode:lr-tb;text-anchor:middle;fill:#000000;fill-opacity:1;stroke:none;stroke-width:1px;stroke-linecap:butt;stroke-linejoin:miter;stroke-opacity:1;font-family:DejaVu Serif;-inkscape-font-specification:DejaVu Serif"><tspan
         x="32.31805"
         y="96.862183"
         id="tspan2389"
         style="font-size:30px;font-style:normal;font-variant:normal;font-weight:normal;font-stretch:normal;font-family:DejaVu Serif;-inkscape-font-specification:DejaVu Serif">b</tspan></text>
    <text
       x="50.31805"
       y="96.862183"
       id="text2391"
       xml:space="preserve"
       style="font-size:30px;font-style:normal;font-variant:normal;font-weight:normal;font-stretch:normal;text-align:center;line-height:125%;writing-mode:lr-tb;text-anchor:middle;fill:#000000;fill-opacity:1;stroke:none;stroke-width:1px;stroke-linecap:butt;stroke-linejoin:miter;stroke-opacity:1;font-family:DejaVu Serif;-inkscape-font-specification:DejaVu Serif"><tspan
         x="50.31805"
         y="96.862183"
         id="tspan2393"
         style="font-size:30px;font-style:normal;font-variant:normal;font-weight:normal;font-stretch:normal;font-family:DejaVu Serif;-inkscape-font-specification:DejaVu Serif">c</tspan></text>
    <text
       x="68.318054"
       y="96.862183"
       id="text2395"
       xml:space="preserve"
       style="font-size:30px;font-style:normal;font-variant:normal;font-weight:normal;font-stretch:normal;text-align:center;line-height:125%;writing-mode:lr-tb;text-anchor:middle;fill:#000000;fill-opacity:1;stroke:none;stroke-width:1px;stroke-linecap:butt;stroke-linejoin:miter;stroke-opacity:1;font-family:DejaVu Serif;-inkscape-font-specification:DejaVu Serif"><tspan
         x="68.318054"
         y="96.862183"
         id="tspan2397"
         style="font-size:30px;font-style:normal;font-variant:normal;font-weight:normal;font-stretch:normal;font-family:DejaVu Serif;-inkscape-font-specification:DejaVu Serif">d</tspan></text>
    <text
       x="86.318054"
       y="96.862183"
       id="text2399"
       xml:space="preserve"
       style="font-size:30px;font-style:normal;font-variant:normal;font-weight:normal;font-stretch:normal;text-align:center;line-height:125%;writing-mode:lr-tb;text-anchor:middle;fill:#000000;fill-opacity:1;stroke:none;stroke-width:1px;stroke-linecap:butt;stroke-linejoin:miter;stroke-opacity:1;font-family:DejaVu Serif;-inkscape-font-specification:DejaVu Serif"><tspan
         x="86.318054"
         y="96.862183"
         id="tspan2401"
         style="font-size:30px;font-style:normal;font-variant:normal;font-weight:normal;font-stretch:normal;font-family:DejaVu Serif;-inkscape-font-specification:DejaVu Serif"></tspan></text>
    <text
       x="104.31805"
       y="96.862183"
       id="text2403"
       xml:space="preserve"
       style="font-size:30px;font-style:normal;font-variant:normal;font-weight:normal;font-stretch:normal;text-align:center;line-height:125%;writing-mode:lr-tb;text-anchor:middle;fill:#000000;fill-opacity:1;stroke:none;stroke-width:1px;stroke-linecap:butt;stroke-linejoin:miter;stroke-opacity:1;font-family:DejaVu Serif;-inkscape-font-specification:DejaVu Serif"><tspan
         x="104.31805"
         y="96.862183"
         id="tspan2405"
         style="font-size:30px;font-style:normal;font-variant:normal;font-weight:normal;font-stretch:normal;font-family:DejaVu Serif;-inkscape-font-specification:DejaVu Serif"></tspan></text>
    <text
       x="122.43555"
       y="96.862183"
       id="text2407"
       xml:space="preserve"
       style="font-size:30px;font-style:normal;font-variant:normal;font-weight:normal;font-stretch:normal;text-align:center;line-height:125%;writing-mode:lr-tb;text-anchor:middle;fill:#000000;fill-opacity:1;stroke:none;stroke-width:1px;stroke-linecap:butt;stroke-linejoin:miter;stroke-opacity:1;font-family:DejaVu Serif;-inkscape-font-specification:DejaVu Serif"><tspan
         x="122.43555"
         y="96.862183"
         id="tspan2409"
         style="font-size:30px;font-style:normal;font-variant:normal;font-weight:normal;font-stretch:normal;font-family:DejaVu Serif;-inkscape-font-specification:DejaVu Serif">e</tspan></text>
    <text
       x="137.44569"
       y="96.862183"
       id="text2411"
       xml:space="preserve"
       style="font-size:30px;font-style:normal;font-variant:normal;font-weight:normal;font-stretch:normal;text-align:center;line-height:125%;writing-mode:lr-tb;text-anchor:middle;fill:#000000;fill-opacity:1;stroke:none;stroke-width:1px;stroke-linecap:butt;stroke-linejoin:miter;stroke-opacity:1;font-family:DejaVu Serif;-inkscape-font-specification:DejaVu Serif"><tspan
         x="137.44569"
         y="96.862183"
         id="tspan2413"
         style="font-size:30px;font-style:normal;font-variant:normal;font-weight:normal;font-stretch:normal;font-family:DejaVu Serif;-inkscape-font-specification:DejaVu Serif">f</tspan></text>
    <text
       x="154.43555"
       y="96.862183"
       id="text2415"
       xml:space="preserve"
       style="font-size:30px;font-style:normal;font-variant:normal;font-weight:normal;font-stretch:normal;text-align:center;line-height:125%;writing-mode:lr-tb;text-anchor:middle;fill:#000000;fill-opacity:1;stroke:none;stroke-width:1px;stroke-linecap:butt;stroke-linejoin:miter;stroke-opacity:1;font-family:DejaVu Serif;-inkscape-font-specification:DejaVu Serif"><tspan
         x="154.43555"
         y="96.862183"
         id="tspan2417"
         style="font-size:30px;font-style:normal;font-variant:normal;font-weight:normal;font-stretch:normal;font-family:DejaVu Serif;-inkscape-font-specification:DejaVu Serif">g</tspan></text>
    <text
       x="174.43555"
       y="96.862183"
       id="text2419"
       xml:space="preserve"
       style="font-size:30px;font-style:normal;font-variant:normal;font-weight:normal;font-stretch:normal;text-align:center;line-height:125%;writing-mode:lr-tb;text-anchor:middle;fill:#000000;fill-opacity:1;stroke:none;stroke-width:1px;stroke-linecap:butt;stroke-linejoin:miter;stroke-opacity:1;font-family:DejaVu Serif;-inkscape-font-specification:DejaVu Serif"><tspan
         x="174.43555"
         y="96.862183"
         id="tspan2421"
         style="font-size:30px;font-style:normal;font-variant:normal;font-weight:normal;font-stretch:normal;font-family:DejaVu Serif;-inkscape-font-specification:DejaVu Serif">h</tspan></text>
    <text
       x="190.43555"
       y="96.862183"
       id="text2423"
       xml:space="preserve"
       style="font-size:30px;font-style:normal;font-variant:normal;font-weight:normal;font-stretch:normal;text-align:center;line-height:125%;writing-mode:lr-tb;text-anchor:middle;fill:#000000;fill-opacity:1;stroke:none;stroke-width:1px;stroke-linecap:butt;stroke-linejoin:miter;stroke-opacity:1;font-family:DejaVu Serif;-inkscape-font-specification:DejaVu Serif"><tspan
         x="190.43555"
         y="96.862183"
         id="tspan2425"
         style="font-size:30px;font-style:normal;font-variant:normal;font-weight:normal;font-stretch:normal;font-family:DejaVu Serif;-inkscape-font-specification:DejaVu Serif">i</tspan></text>
    <text
       x="206.43555"
       y="96.862183"
       id="text2427"
       xml:space="preserve"
       style="font-size:30px;font-style:normal;font-variant:normal;font-weight:normal;font-stretch:normal;text-align:center;line-height:125%;writing-mode:lr-tb;text-anchor:middle;fill:#000000;fill-opacity:1;stroke:none;stroke-width:1px;stroke-linecap:butt;stroke-linejoin:miter;stroke-opacity:1;font-family:DejaVu Serif;-inkscape-font-specification:DejaVu Serif"><tspan
         x="206.43555"
         y="96.862183"
         id="tspan2429"
         style="font-size:30px;font-style:normal;font-variant:normal;font-weight:normal;font-stretch:normal;font-family:DejaVu Serif;-inkscape-font-specification:DejaVu Serif">k</tspan></text>
    <text
       x="222.75467"
       y="96.862183"
       id="text2431"
       xml:space="preserve"
       style="font-size:30px;font-style:normal;font-variant:normal;font-weight:normal;font-stretch:normal;text-align:center;line-height:125%;writing-mode:lr-tb;text-anchor:middle;fill:#000000;fill-opacity:1;stroke:none;stroke-width:1px;stroke-linecap:butt;stroke-linejoin:miter;stroke-opacity:1;font-family:DejaVu Serif;-inkscape-font-specification:DejaVu Serif"><tspan
         x="222.75467"
         y="96.862183"
         id="tspan2433"
         style="font-size:30px;font-style:normal;font-variant:normal;font-weight:normal;font-stretch:normal;font-family:DejaVu Serif;-inkscape-font-specification:DejaVu Serif">l</tspan></text>
    <text
       x="242.75467"
       y="96.862183"
       id="text2435"
       xml:space="preserve"
       style="font-size:30px;font-style:normal;font-variant:normal;font-weight:normal;font-stretch:normal;text-align:center;line-height:125%;writing-mode:lr-tb;text-anchor:middle;fill:#000000;fill-opacity:1;stroke:none;stroke-width:1px;stroke-linecap:butt;stroke-linejoin:miter;stroke-opacity:1;font-family:DejaVu Serif;-inkscape-font-specification:DejaVu Serif"><tspan
         x="242.75467"
         y="96.862183"
         id="tspan2437"
         style="font-size:30px;font-style:normal;font-variant:normal;font-weight:normal;font-stretch:normal;font-family:DejaVu Serif;-inkscape-font-specification:DejaVu Serif">m</tspan></text>
    <text
       x="264.75467"
       y="96.862183"
       id="text2439"
       xml:space="preserve"
       style="font-size:30px;font-style:normal;font-variant:normal;font-weight:normal;font-stretch:normal;text-align:center;line-height:125%;writing-mode:lr-tb;text-anchor:middle;fill:#000000;fill-opacity:1;stroke:none;stroke-width:1px;stroke-linecap:butt;stroke-linejoin:miter;stroke-opacity:1;font-family:DejaVu Serif;-inkscape-font-specification:DejaVu Serif"><tspan
         x="264.75467"
         y="96.862183"
         id="tspan2441"
         style="font-size:30px;font-style:normal;font-variant:normal;font-weight:normal;font-stretch:normal;font-family:DejaVu Serif;-inkscape-font-specification:DejaVu Serif">n</tspan></text>
    <text
       x="282.75467"
       y="96.862183"
       id="text2443"
       xml:space="preserve"
       style="font-size:30px;font-style:normal;font-variant:normal;font-weight:normal;font-stretch:normal;text-align:center;line-height:125%;writing-mode:lr-tb;text-anchor:middle;fill:#000000;fill-opacity:1;stroke:none;stroke-width:1px;stroke-linecap:butt;stroke-linejoin:miter;stroke-opacity:1;font-family:DejaVu Serif;-inkscape-font-specification:DejaVu Serif"><tspan
         x="282.75467"
         y="96.862183"
         id="tspan2445"
         style="font-size:30px;font-style:normal;font-variant:normal;font-weight:normal;font-stretch:normal;font-family:DejaVu Serif;-inkscape-font-specification:DejaVu Serif">o</tspan></text>
    <text
       x="300.75467"
       y="96.862183"
       id="text2447"
       xml:space="preserve"
       style="font-size:30px;font-style:normal;font-variant:normal;font-weight:normal;font-stretch:normal;text-align:center;line-height:125%;writing-mode:lr-tb;text-anchor:middle;fill:#000000;fill-opacity:1;stroke:none;stroke-width:1px;stroke-linecap:butt;stroke-linejoin:miter;stroke-opacity:1;font-family:DejaVu Serif;-inkscape-font-specification:DejaVu Serif"><tspan
         x="300.75467"
         y="96.862183"
         id="tspan2449"
         style="font-size:30px;font-style:normal;font-variant:normal;font-weight:normal;font-stretch:normal;font-family:DejaVu Serif;-inkscape-font-specification:DejaVu Serif">p</tspan></text>
    <text
       x="320.75467"
       y="96.862183"
       id="text2451"
       xml:space="preserve"
       style="font-size:30px;font-style:normal;font-variant:normal;font-weight:normal;font-stretch:normal;text-align:center;line-height:125%;writing-mode:lr-tb;text-anchor:middle;fill:#000000;fill-opacity:1;stroke:none;stroke-width:1px;stroke-linecap:butt;stroke-linejoin:miter;stroke-opacity:1;font-family:DejaVu Serif;-inkscape-font-specification:DejaVu Serif"><tspan
         x="320.75467"
         y="96.862183"
         id="tspan2453"
         style="font-size:30px;font-style:normal;font-variant:normal;font-weight:normal;font-stretch:normal;font-family:DejaVu Serif;-inkscape-font-specification:DejaVu Serif">q</tspan></text>
    <text
       x="338.87216"
       y="96.862183"
       id="text2455"
       xml:space="preserve"
       style="font-size:30px;font-style:normal;font-variant:normal;font-weight:normal;font-stretch:normal;text-align:center;line-height:125%;writing-mode:lr-tb;text-anchor:middle;fill:#000000;fill-opacity:1;stroke:none;stroke-width:1px;stroke-linecap:butt;stroke-linejoin:miter;stroke-opacity:1;font-family:DejaVu Serif;-inkscape-font-specification:DejaVu Serif"><tspan
         x="338.87216"
         y="96.862183"
         id="tspan2457"
         style="font-size:30px;font-style:normal;font-variant:normal;font-weight:normal;font-stretch:normal;font-family:DejaVu Serif;-inkscape-font-specification:DejaVu Serif">r</tspan></text>
    <text
       x="354.87216"
       y="96.862183"
       id="text2459"
       xml:space="preserve"
       style="font-size:30px;font-style:normal;font-variant:normal;font-weight:normal;font-stretch:normal;text-align:center;line-height:125%;writing-mode:lr-tb;text-anchor:middle;fill:#000000;fill-opacity:1;stroke:none;stroke-width:1px;stroke-linecap:butt;stroke-linejoin:miter;stroke-opacity:1;font-family:DejaVu Serif;-inkscape-font-specification:DejaVu Serif"><tspan
         x="354.87216"
         y="96.862183"
         id="tspan2461"
         style="font-size:30px;font-style:normal;font-variant:normal;font-weight:normal;font-stretch:normal;font-family:DejaVu Serif;-inkscape-font-specification:DejaVu Serif">s</tspan></text>
    <text
       x="368.87216"
       y="96.862183"
       id="text2463"
       xml:space="preserve"
       style="font-size:30px;font-style:normal;font-variant:normal;font-weight:normal;font-stretch:normal;text-align:center;line-height:125%;writing-mode:lr-tb;text-anchor:middle;fill:#000000;fill-opacity:1;stroke:none;stroke-width:1px;stroke-linecap:butt;stroke-linejoin:miter;stroke-opacity:1;font-family:DejaVu Serif;-inkscape-font-specification:DejaVu Serif"><tspan
         x="368.87216"
         y="96.862183"
         id="tspan2465"
         style="font-size:30px;font-style:normal;font-variant:normal;font-weight:normal;font-stretch:normal;font-family:DejaVu Serif;-inkscape-font-specification:DejaVu Serif">t</tspan></text>
    <text
       x="384.87216"
       y="96.862183"
       id="text2467"
       xml:space="preserve"
       style="font-size:30px;font-style:normal;font-variant:normal;font-weight:normal;font-stretch:normal;text-align:center;line-height:125%;writing-mode:lr-tb;text-anchor:middle;fill:#000000;fill-opacity:1;stroke:none;stroke-width:1px;stroke-linecap:butt;stroke-linejoin:miter;stroke-opacity:1;font-family:DejaVu Serif;-inkscape-font-specification:DejaVu Serif"><tspan
         x="384.87216"
         y="96.862183"
         id="tspan2469"
         style="font-size:30px;font-style:normal;font-variant:normal;font-weight:normal;font-stretch:normal;font-family:DejaVu Serif;-inkscape-font-specification:DejaVu Serif">u</tspan></text>
    <text
       x="402.87216"
       y="96.862183"
       id="text2471"
       xml:space="preserve"
       style="font-size:30px;font-style:normal;font-variant:normal;font-weight:normal;font-stretch:normal;text-align:center;line-height:125%;writing-mode:lr-tb;text-anchor:middle;fill:#000000;fill-opacity:1;stroke:none;stroke-width:1px;stroke-linecap:butt;stroke-linejoin:miter;stroke-opacity:1;font-family:DejaVu Serif;-inkscape-font-specification:DejaVu Serif"><tspan
         x="402.87216"
         y="96.862183"
         id="tspan2473"
         style="font-size:30px;font-style:normal;font-variant:normal;font-weight:normal;font-stretch:normal;font-family:DejaVu Serif;-inkscape-font-specification:DejaVu Serif">v</tspan></text>
    <text
       x="422.87216"
       y="96.862183"
       id="text2475"
       xml:space="preserve"
       style="font-size:30px;font-style:normal;font-variant:normal;font-weight:normal;font-stretch:normal;text-align:center;line-height:125%;writing-mode:lr-tb;text-anchor:middle;fill:#000000;fill-opacity:1;stroke:none;stroke-width:1px;stroke-linecap:butt;stroke-linejoin:miter;stroke-opacity:1;font-family:DejaVu Serif;-inkscape-font-specification:DejaVu Serif"><tspan
         x="422.87216"
         y="96.862183"
         id="tspan2477"
         style="font-size:30px;font-style:normal;font-variant:normal;font-weight:normal;font-stretch:normal;font-family:DejaVu Serif;-inkscape-font-specification:DejaVu Serif">y</tspan></text>
    <text
       x="439.53516"
       y="96.862183"
       id="text2479"
       xml:space="preserve"
       style="font-size:30px;font-style:normal;font-variant:normal;font-weight:normal;font-stretch:normal;text-align:center;line-height:125%;writing-mode:lr-tb;text-anchor:middle;fill:#000000;fill-opacity:1;stroke:none;stroke-width:1px;stroke-linecap:butt;stroke-linejoin:miter;stroke-opacity:1;font-family:DejaVu Serif;-inkscape-font-specification:DejaVu Serif"><tspan
         x="439.53516"
         y="96.862183"
         id="tspan2481"
         style="font-size:30px;font-style:normal;font-variant:normal;font-weight:normal;font-stretch:normal;font-family:DejaVu Serif;-inkscape-font-specification:DejaVu Serif">z</tspan></text>
    <text
       x="461.53516"
       y="96.862183"
       id="text2483"
       xml:space="preserve"
       style="font-size:30px;font-style:normal;font-variant:normal;font-weight:normal;font-stretch:normal;text-align:center;line-height:125%;writing-mode:lr-tb;text-anchor:middle;fill:#000000;fill-opacity:1;stroke:none;stroke-width:1px;stroke-linecap:butt;stroke-linejoin:miter;stroke-opacity:1;font-family:DejaVu Serif;-inkscape-font-specification:DejaVu Serif"><tspan
         x="461.53516"
         y="96.862183"
         id="tspan2485"
         style="font-size:30px;font-style:normal;font-variant:normal;font-weight:normal;font-stretch:normal;font-family:DejaVu Serif;-inkscape-font-specification:DejaVu Serif"></tspan></text>
    <text
       x="483.53516"
       y="96.862183"
       id="text2487"
       xml:space="preserve"
       style="font-size:30px;font-style:normal;font-variant:normal;font-weight:normal;font-stretch:normal;text-align:center;line-height:125%;writing-mode:lr-tb;text-anchor:middle;fill:#000000;fill-opacity:1;stroke:none;stroke-width:1px;stroke-linecap:butt;stroke-linejoin:miter;stroke-opacity:1;font-family:DejaVu Serif;-inkscape-font-specification:DejaVu Serif"><tspan
         x="483.53516"
         y="96.862183"
         id="tspan2489"
         style="font-size:30px;font-style:normal;font-variant:normal;font-weight:normal;font-stretch:normal;font-family:DejaVu Serif;-inkscape-font-specification:DejaVu Serif"></tspan></text>
  </g>
</svg>
