<?xml version="1.0" encoding="UTF-8" standalone="no"?>
<!-- Created with Inkscape (http://www.inkscape.org/) -->
<svg
   xmlns:svg="http://www.w3.org/2000/svg"
   xmlns="http://www.w3.org/2000/svg"
   version="1.0"
   width="351"
   height="121"
   id="svg2816">
  <defs
     id="defs2818" />
  <g
     transform="translate(0.5,-1.8621826)"
     id="layer1">
    <path
       d="M 22.678571,13.348468 C 22.678556,12.985824 22.806556,12.676491 23.062571,12.420468 C 23.318555,12.143158 23.627888,12.004491 23.990571,12.004468 C 24.353221,12.004491 24.662554,12.132491 24.918571,12.388468 C 25.174553,12.623157 25.31322,12.921824 25.334571,13.284468 L 25.366571,13.284468 C 25.366553,14.991155 25.046553,16.60182 24.406571,18.116468 C 23.787888,19.609817 22.923889,20.932483 21.814571,22.084468 C 20.726558,23.23648 19.446559,24.164479 17.974571,24.868468 C 16.502562,25.572478 14.923897,25.967144 13.238571,26.052468 L 13.238571,34.436469 C 13.238565,34.799136 13.110565,35.097802 12.854571,35.332469 C 12.619899,35.567135 12.321233,35.684468 11.958571,35.684469 C 11.5959,35.684468 11.286567,35.567135 11.030571,35.332469 C 10.795901,35.097802 10.678568,34.799136 10.678571,34.436469 L 10.678571,13.348468 C 10.678568,12.985824 10.795901,12.676491 11.030571,12.420468 C 11.286567,12.164491 11.5959,12.036491 11.958571,12.036468 C 12.321233,12.036491 12.619899,12.164491 12.854571,12.420468 C 13.110565,12.676491 13.238565,12.985824 13.238571,13.348468 L 13.238571,18.660468 C 14.390564,18.383152 15.339896,17.775152 16.086571,16.836468 C 16.854562,15.897821 17.291895,14.724489 17.398571,13.316468 C 17.398561,12.953824 17.515894,12.655157 17.750571,12.420468 C 18.00656,12.164491 18.315893,12.036491 18.678571,12.036468 C 19.041226,12.036491 19.350559,12.164491 19.606571,12.420468 C 19.862559,12.655157 19.990558,12.953824 19.990571,13.316468 C 19.926559,14.489822 19.713225,15.503155 19.350571,16.356468 C 18.987893,17.20982 18.507893,17.977819 17.910571,18.660468 C 17.313228,19.321817 16.609229,19.876484 15.798571,20.324468 C 15.00923,20.772483 14.155898,21.071149 13.238571,21.220468 L 13.238571,23.492468 C 14.539897,23.407147 15.766563,23.087147 16.918571,22.532468 C 18.07056,21.956481 19.073226,21.220482 19.926571,20.324468 C 20.779891,19.407151 21.45189,18.351152 21.942571,17.156468 C 22.433223,15.961821 22.678556,14.692489 22.678571,13.348468 M 37.468857,20.740468 C 37.426179,19.993817 37.234179,19.289817 36.892857,18.628468 C 36.551513,17.945819 36.103513,17.359153 35.548857,16.868468 C 34.994181,16.356487 34.354182,15.961821 33.628857,15.684468 C 32.92485,15.385821 32.199517,15.236488 31.452857,15.236468 L 31.452857,34.436469 C 31.452851,34.799136 31.324851,35.097802 31.068857,35.332469 C 30.834185,35.567135 30.535519,35.684468 30.172857,35.684469 C 29.810186,35.684468 29.500853,35.567135 29.244857,35.332469 C 29.010187,35.097802 28.892854,34.799136 28.892857,34.436469 L 28.892857,13.956468 C 28.892854,13.593823 29.010187,13.28449 29.244857,13.028468 C 29.500853,12.772491 29.810186,12.644491 30.172857,12.644468 L 31.452857,12.644468 C 32.54085,12.665824 33.596849,12.889824 34.620857,13.316468 C 35.66618,13.743156 36.583513,14.329822 37.372857,15.076468 C 38.183511,15.801821 38.823511,16.655153 39.292857,17.636468 C 39.78351,18.617818 40.050176,19.652484 40.092857,20.740468 L 41.340857,34.436469 C 41.340841,34.799136 41.212841,35.097802 40.956857,35.332469 C 40.722175,35.567135 40.423509,35.684468 40.060857,35.684469 C 39.698176,35.684468 39.388843,35.567135 39.132857,35.332469 C 38.898177,35.097802 38.780844,34.799136 38.780857,34.436469 L 37.468857,20.740468 M 59.047129,23.876468 C 59.047115,24.985812 58.833782,26.031144 58.407129,27.012468 C 58.001783,27.972476 57.43645,28.815142 56.711129,29.540469 C 55.985785,30.265807 55.132452,30.841806 54.151129,31.268469 C 53.191121,31.673805 52.156455,31.876472 51.047129,31.876469 L 51.047129,34.436469 C 51.047123,34.799136 50.919123,35.097802 50.663129,35.332469 C 50.428457,35.567135 50.129791,35.684468 49.767129,35.684469 C 49.404458,35.684468 49.095125,35.567135 48.839129,35.332469 C 48.604459,35.097802 48.487126,34.799136 48.487129,34.436469 L 48.487129,13.348468 C 48.487126,12.985824 48.604459,12.676491 48.839129,12.420468 C 49.095125,12.164491 49.404458,12.036491 49.767129,12.036468 C 50.129791,12.036491 50.428457,12.164491 50.663129,12.420468 C 50.919123,12.676491 51.047123,12.985824 51.047129,13.348468 L 51.047129,15.876468 C 52.156455,15.876488 53.191121,16.089821 54.151129,16.516468 C 55.132452,16.92182 55.985785,17.487153 56.711129,18.212468 C 57.43645,18.937818 58.001783,19.79115 58.407129,20.772468 C 58.833782,21.732482 59.047115,22.767147 59.047129,23.876468 M 56.519129,23.908468 C 56.519118,23.161814 56.369785,22.457814 56.071129,21.796468 C 55.793785,21.135149 55.399119,20.55915 54.887129,20.068468 C 54.396453,19.556484 53.820454,19.161818 53.159129,18.884468 C 52.497788,18.585818 51.793789,18.436485 51.047129,18.436468 L 51.047129,29.348469 C 51.793789,29.348474 52.497788,29.209808 53.159129,28.932469 C 53.820454,28.633808 54.396453,28.239142 54.887129,27.748469 C 55.399119,27.25781 55.793785,26.68181 56.071129,26.020468 C 56.369785,25.359145 56.519118,24.655145 56.519129,23.908468 M 72.495754,34.436469 C 72.495744,34.799136 72.367744,35.097802 72.111754,35.332469 C 71.877074,35.567135 71.578404,35.684468 71.215754,35.684469 C 70.853074,35.684468 70.543744,35.567135 70.287754,35.332469 C 70.053074,35.097802 69.935744,34.799136 69.935754,34.436469 L 69.935754,27.364468 L 66.159754,25.060468 C 66.074414,25.039145 65.978414,24.985812 65.871754,24.900468 C 65.466414,24.623145 65.263744,24.260479 65.263754,23.812468 C 65.263744,23.577813 65.327744,23.343147 65.455754,23.108468 C 65.562414,22.895147 65.711744,22.745814 65.903754,22.660468 C 66.095744,22.553814 66.298414,22.500481 66.511754,22.500468 C 66.746414,22.500481 66.981084,22.564481 67.215754,22.692468 L 69.935754,24.356468 L 69.935754,21.796468 L 66.159754,19.492468 C 66.074414,19.471151 65.978414,19.417817 65.871754,19.332468 C 65.466414,19.055151 65.263744,18.692485 65.263754,18.244468 C 65.263744,18.009819 65.327744,17.775152 65.455754,17.540468 C 65.562414,17.327153 65.711744,17.17782 65.903754,17.092468 C 66.095744,16.98582 66.298414,16.932486 66.511754,16.932468 C 66.746414,16.932486 66.981084,16.996486 67.215754,17.124468 L 69.935754,18.788468 L 69.935754,13.348468 C 69.935744,12.985824 70.053074,12.676491 70.287754,12.420468 C 70.543744,12.164491 70.853074,12.036491 71.215754,12.036468 C 71.578404,12.036491 71.877074,12.164491 72.111754,12.420468 C 72.367744,12.676491 72.495744,12.985824 72.495754,13.348468 L 72.495754,20.324468 L 76.495754,22.756468 C 76.901074,23.033814 77.103734,23.39648 77.103754,23.844468 C 77.103734,24.079146 77.039734,24.303146 76.911754,24.516468 C 76.805074,24.708479 76.645074,24.857812 76.431754,24.964468 C 76.239734,25.071145 76.037074,25.124478 75.823754,25.124468 C 75.589074,25.124478 75.365074,25.060478 75.151754,24.932468 L 72.495754,23.332468 L 72.495754,26.052468 L 76.495754,28.324469 C 76.709074,28.431142 76.858404,28.591142 76.943754,28.804469 C 77.050404,28.996475 77.103734,29.199141 77.103754,29.412469 C 77.103734,29.647141 77.039734,29.87114 76.911754,30.084469 C 76.805074,30.276473 76.645074,30.425807 76.431754,30.532469 C 76.239734,30.63914 76.037074,30.692473 75.823754,30.692469 C 75.589074,30.692473 75.365074,30.628473 75.151754,30.500469 L 72.495754,28.900469 L 72.495754,34.436469 M 87.524286,15.620468 L 87.524286,34.436469 C 87.524276,34.799136 87.396276,35.097802 87.140286,35.332469 C 86.905616,35.567135 86.606946,35.684468 86.244286,35.684469 C 85.881616,35.684468 85.572286,35.567135 85.316286,35.332469 C 85.081616,35.097802 84.964286,34.799136 84.964286,34.436469 L 84.964286,13.732468 C 84.964286,13.135157 85.006946,12.761824 85.092286,12.612468 C 85.198946,12.399158 85.348286,12.249825 85.540286,12.164468 C 85.732286,12.057825 85.934946,12.004491 86.148286,12.004468 C 86.212286,12.004491 86.276286,12.015158 86.340286,12.036468 C 86.404286,12.036491 86.478946,12.047158 86.564286,12.068468 C 86.649616,12.111158 86.724286,12.153825 86.788286,12.196468 C 86.873616,12.217825 86.958946,12.260491 87.044286,12.324468 L 94.468286,16.836468 C 94.724276,17.028486 94.905606,17.273819 95.012286,17.572468 C 95.097606,17.721819 95.140276,17.903152 95.140286,18.116468 C 95.140276,18.436485 95.022936,18.713818 94.788286,18.948468 L 91.620286,22.916468 L 96.388286,34.116469 C 96.409606,34.223136 96.420276,34.319136 96.420286,34.404469 C 96.441606,34.489803 96.441606,34.585802 96.420286,34.692469 C 96.420276,35.183135 96.100276,35.503135 95.460286,35.652469 C 95.438936,35.673801 95.332276,35.684468 95.140286,35.684469 C 94.841606,35.684468 94.585606,35.599135 94.372286,35.428469 C 94.180276,35.257802 94.030936,35.033802 93.924286,34.756469 L 89.060286,23.652468 C 88.846946,23.439147 88.740276,23.14048 88.740286,22.756468 C 88.740276,22.372481 88.857616,22.063148 89.092286,21.828468 L 91.908286,18.276468 L 87.524286,15.620468 M 114.392,13.380468 C 114.43465,14.639155 114.22132,15.812488 113.752,16.900468 C 113.28265,17.988485 112.64265,18.937818 111.832,19.748468 C 111.04266,20.55915 110.10399,21.199149 109.016,21.668468 C 107.92799,22.137815 106.77599,22.372481 105.56,22.372468 L 105.56,34.436469 C 105.55999,34.799136 105.43199,35.097802 105.176,35.332469 C 104.94133,35.567135 104.64266,35.684468 104.28,35.684469 C 103.91733,35.684468 103.608,35.567135 103.352,35.332469 C 103.11733,35.097802 103,34.799136 103,34.436469 L 103,13.348468 C 103,12.985824 103.11733,12.676491 103.352,12.420468 C 103.608,12.164491 103.91733,12.036491 104.28,12.036468 C 104.64266,12.036491 104.94133,12.164491 105.176,12.420468 C 105.43199,12.676491 105.55999,12.985824 105.56,13.348468 L 105.56,19.748468 C 106.41333,19.748484 107.21333,19.588484 107.96,19.268468 C 108.72799,18.927151 109.39999,18.468485 109.976,17.892468 C 110.55199,17.316486 110.99999,16.644487 111.32,15.876468 C 111.66132,15.108488 111.83199,14.276489 111.832,13.380468 C 111.83199,13.017824 111.94932,12.708491 112.184,12.452468 C 112.43999,12.196491 112.74932,12.068491 113.112,12.068468 C 113.47465,12.068491 113.77332,12.196491 114.008,12.452468 C 114.26399,12.708491 114.39199,13.017824 114.392,13.380468 M 147.28571,21.540468 L 147.28571,13.348468 C 147.2857,12.985824 147.40304,12.676491 147.63771,12.420468 C 147.8937,12.164491 148.20303,12.036491 148.56571,12.036468 C 148.92837,12.036491 149.2377,12.164491 149.49371,12.420468 C 149.7497,12.676491 149.8777,12.985824 149.87771,13.348468 L 149.84571,21.604468 L 153.46171,19.492468 C 153.67503,19.364484 153.89903,19.300484 154.13371,19.300468 C 154.36836,19.300484 154.59236,19.364484 154.80571,19.492468 C 155.01903,19.620484 155.16836,19.79115 155.25371,20.004468 C 155.36036,20.217817 155.41369,20.409816 155.41371,20.580468 C 155.41369,20.772483 155.36036,20.975149 155.25371,21.188468 C 155.14703,21.401815 154.97636,21.572482 154.74171,21.700468 L 151.15771,23.780468 L 154.77371,25.860468 C 155.00836,25.988477 155.16836,26.137811 155.25371,26.308468 C 155.36036,26.45781 155.41369,26.64981 155.41371,26.884468 C 155.41369,27.140476 155.34969,27.375143 155.22171,27.588468 C 155.09369,27.801809 154.95503,27.951142 154.80571,28.036469 C 154.65636,28.121809 154.52836,28.175142 154.42171,28.196469 C 154.33636,28.217809 154.24036,28.228475 154.13371,28.228469 C 153.92036,28.228475 153.7177,28.175142 153.52571,28.068469 L 149.84571,25.956468 L 149.84571,34.436469 C 149.8457,34.799136 149.7177,35.097802 149.46171,35.332469 C 149.22703,35.567135 148.92837,35.684468 148.56571,35.684469 C 148.20303,35.684468 147.8937,35.567135 147.63771,35.332469 C 147.40304,35.097802 147.2857,34.799136 147.28571,34.436469 L 147.28571,26.020468 L 143.66971,28.068469 C 143.47771,28.175142 143.27504,28.228475 143.06171,28.228469 C 142.95504,28.228475 142.84837,28.217809 142.74171,28.196469 C 142.65637,28.175142 142.53904,28.121809 142.38971,28.036469 C 142.24037,27.951142 142.10171,27.801809 141.97371,27.588468 C 141.84571,27.375143 141.78171,27.140476 141.78171,26.884468 C 141.78171,26.64981 141.82437,26.45781 141.90971,26.308468 C 142.01637,26.137811 142.18704,25.988477 142.42171,25.860468 L 146.06971,23.780468 L 142.45371,21.668468 C 142.21904,21.540482 142.04837,21.369815 141.94171,21.156468 C 141.83504,20.943149 141.78171,20.740483 141.78171,20.548468 C 141.78171,20.377816 141.82437,20.185817 141.90971,19.972468 C 142.01637,19.75915 142.17637,19.588484 142.38971,19.460468 C 142.60304,19.332484 142.82704,19.268484 143.06171,19.268468 C 143.27504,19.268484 143.49904,19.332484 143.73371,19.460468 L 147.28571,21.540468 M 170.05629,34.436469 C 170.05628,34.799136 169.92828,35.097802 169.67229,35.332469 C 169.43762,35.567135 169.13895,35.684468 168.77629,35.684469 C 168.41362,35.684468 168.10428,35.567135 167.84829,35.332469 C 167.61362,35.097802 167.49628,34.799136 167.49629,34.436469 L 167.49629,24.644468 L 163.72029,22.340468 C 163.63495,22.319148 163.53895,22.265815 163.43229,22.180468 C 163.02696,21.903148 162.82429,21.540482 162.82429,21.092468 C 162.82429,20.857816 162.88829,20.623149 163.01629,20.388468 C 163.12296,20.17515 163.27229,20.025817 163.46429,19.940468 C 163.65629,19.833817 163.85895,19.780484 164.07229,19.780468 C 164.30695,19.780484 164.54162,19.844484 164.77629,19.972468 L 167.49629,21.636468 L 167.49629,13.668468 C 167.47495,13.625823 167.46428,13.519157 167.46429,13.348468 C 167.46428,12.985824 167.59228,12.676491 167.84829,12.420468 C 168.10428,12.164491 168.41362,12.036491 168.77629,12.036468 C 169.13895,12.036491 169.43762,12.164491 169.67229,12.420468 C 169.92828,12.676491 170.05628,12.985824 170.05629,13.348468 L 170.05629,23.172468 L 174.05629,25.604468 C 174.46161,25.881811 174.66428,26.244477 174.66429,26.692468 C 174.66428,26.927143 174.60028,27.151143 174.47229,27.364468 C 174.36561,27.556476 174.20561,27.705809 173.99229,27.812469 C 173.80028,27.919142 173.59761,27.972476 173.38429,27.972469 C 173.14961,27.972476 172.92561,27.908476 172.71229,27.780469 L 170.05629,26.180468 L 170.05629,34.436469 M 186.32651,13.348468 C 186.32651,12.985824 186.44384,12.676491 186.67851,12.420468 C 186.93451,12.164491 187.24384,12.036491 187.60651,12.036468 C 187.96917,12.036491 188.26784,12.164491 188.50251,12.420468 C 188.7585,12.676491 188.8865,12.985824 188.88651,13.348468 L 188.88651,34.436469 C 188.8865,34.799136 188.7585,35.097802 188.50251,35.332469 C 188.26784,35.567135 187.96917,35.684468 187.60651,35.684469 C 187.24384,35.684468 186.93451,35.567135 186.67851,35.332469 C 186.44384,35.097802 186.32651,34.799136 186.32651,34.436469 L 186.32651,13.348468 M 201.79512,27.780469 C 201.56045,27.908476 201.33645,27.972476 201.12312,27.972469 C 200.90978,27.972476 200.69645,27.919142 200.48312,27.812469 C 200.29112,27.705809 200.14179,27.556476 200.03512,27.364468 C 199.90712,27.151143 199.84312,26.927143 199.84312,26.692468 C 199.84312,26.244477 200.04579,25.881811 200.45112,25.604468 L 204.45112,23.172468 L 204.45112,13.348468 C 204.45111,12.985824 204.56845,12.676491 204.80312,12.420468 C 205.05911,12.164491 205.36845,12.036491 205.73112,12.036468 C 206.09378,12.036491 206.39245,12.164491 206.62712,12.420468 C 206.88311,12.655157 207.01111,12.953824 207.01112,13.316468 L 207.01112,21.636468 L 209.73112,19.972468 C 209.94444,19.844484 210.17911,19.780484 210.43512,19.780468 C 210.64844,19.780484 210.85111,19.833817 211.04312,19.940468 C 211.23511,20.025817 211.38444,20.17515 211.49112,20.388468 C 211.61911,20.623149 211.68311,20.857816 211.68312,21.092468 C 211.68311,21.540482 211.48044,21.903148 211.07512,22.180468 C 210.96844,22.265815 210.87244,22.319148 210.78712,22.340468 L 207.01112,24.644468 L 207.01112,34.436469 C 207.01111,34.799136 206.88311,35.097802 206.62712,35.332469 C 206.39245,35.567135 206.09378,35.684468 205.73112,35.684469 C 205.36845,35.684468 205.05911,35.567135 204.80312,35.332469 C 204.56845,35.097802 204.45111,34.799136 204.45112,34.436469 L 204.45112,26.180468 L 201.79512,27.780469 M 218.63812,13.380468 C 218.63812,13.017824 218.75545,12.708491 218.99012,12.452468 C 219.24612,12.196491 219.55545,12.068491 219.91812,12.068468 C 220.28078,12.068491 220.59011,12.196491 220.84612,12.452468 C 221.10211,12.708491 221.23011,13.017824 221.23012,13.380468 L 221.23012,24.420468 L 228.55812,19.972468 C 228.77144,19.844484 229.00611,19.780484 229.26212,19.780468 C 229.47544,19.780484 229.67811,19.833817 229.87012,19.940468 C 230.06211,20.025817 230.21144,20.17515 230.31812,20.388468 C 230.36077,20.49515 230.39277,20.612483 230.41412,20.740468 C 230.45677,20.868483 230.4781,21.060482 230.47812,21.316468 L 230.47812,34.436469 C 230.4781,34.799136 230.36077,35.097802 230.12612,35.332469 C 229.89144,35.567135 229.59277,35.684468 229.23012,35.684469 C 228.86744,35.684468 228.55811,35.567135 228.30212,35.332469 C 228.06744,35.097802 227.95011,34.799136 227.95012,34.436469 L 227.95012,23.556468 L 220.62212,27.780469 C 220.38745,27.908476 220.16345,27.972476 219.95012,27.972469 C 219.73678,27.972476 219.52345,27.919142 219.31012,27.812469 C 219.11812,27.705809 218.96878,27.556476 218.86212,27.364468 C 218.71278,26.980476 218.64878,26.756477 218.67012,26.692468 L 218.63812,13.380468 M 253.71575,12.676468 C 253.71574,12.676491 253.86508,12.569824 254.16375,12.356468 C 254.48374,12.143158 254.75041,12.036491 254.96375,12.036468 C 255.19841,12.036491 255.43307,12.111158 255.66775,12.260468 C 255.92374,12.388491 256.05174,12.452491 256.05175,12.452468 L 262.38775,16.292468 C 262.79307,16.56982 262.99573,16.932486 262.99575,17.380468 C 262.99573,17.615152 262.93173,17.839152 262.80375,18.052468 C 262.69707,18.244485 262.53707,18.393818 262.32375,18.500468 C 262.13173,18.607151 261.92907,18.660485 261.71575,18.660468 C 261.48107,18.660485 261.25707,18.596485 261.04375,18.468468 L 256.33975,15.620468 L 256.33975,34.436469 C 256.33974,34.799136 256.21174,35.097802 255.95575,35.332469 C 255.72107,35.567135 255.42241,35.684468 255.05975,35.684469 C 254.69707,35.684468 254.38774,35.567135 254.13175,35.332469 C 253.89708,35.097802 253.77974,34.799136 253.77975,34.436469 L 253.77975,15.684468 L 249.07575,18.532468 C 248.84108,18.660485 248.61708,18.724485 248.40375,18.724468 C 248.19041,18.724485 247.97708,18.671151 247.76375,18.564468 C 247.57175,18.457818 247.42242,18.308485 247.31575,18.116468 C 247.18775,17.903152 247.12375,17.679152 247.12375,17.444468 C 247.12375,16.996486 247.32642,16.63382 247.73175,16.356468 L 251.73175,13.924468 L 253.71575,12.676468 M 278.19857,28.836469 C 278.19856,29.711141 278.02789,30.532473 277.68657,31.300469 C 277.36656,32.047138 276.92923,32.697804 276.37457,33.252469 C 275.81989,33.807137 275.15856,34.255136 274.39057,34.596469 C 273.62256,34.916469 272.8119,35.076469 271.95857,35.076469 L 270.67857,35.076469 C 270.3159,35.076469 270.00657,34.959135 269.75057,34.724469 C 269.5159,34.468469 269.39857,34.159136 269.39857,33.796469 L 269.43057,13.988468 C 269.43057,13.625823 269.5479,13.31649 269.78257,13.060468 C 270.03857,12.804491 270.3479,12.676491 270.71057,12.676468 L 271.95857,12.676468 C 272.8119,12.676491 273.62256,12.847157 274.39057,13.188468 C 275.15856,13.50849 275.81989,13.945823 276.37457,14.500468 C 276.92923,15.055155 277.36656,15.716488 277.68657,16.484468 C 278.02789,17.252486 278.19856,18.063152 278.19857,18.916468 C 278.19856,19.940484 277.97456,20.889816 277.52657,21.764468 C 277.09989,22.617814 276.51323,23.321813 275.76657,23.876468 C 276.51323,24.452479 277.09989,25.167145 277.52657,26.020468 C 277.97456,26.87381 278.19856,27.812476 278.19857,28.836469 M 275.63857,18.916468 C 275.63856,18.404485 275.54256,17.935152 275.35057,17.508468 C 275.15856,17.060486 274.89189,16.66582 274.55057,16.324468 C 274.20923,15.983154 273.81456,15.716488 273.36657,15.524468 C 272.9399,15.332488 272.47056,15.236488 271.95857,15.236468 L 271.95857,22.596468 L 272.08657,22.596468 C 272.5559,22.575148 273.0039,22.468481 273.43057,22.276468 C 273.87856,22.063148 274.26256,21.796482 274.58257,21.476468 C 274.90256,21.135149 275.15856,20.751149 275.35057,20.324468 C 275.54256,19.876484 275.63856,19.407151 275.63857,18.916468 M 275.63857,28.836469 C 275.63856,28.324475 275.54256,27.855143 275.35057,27.428468 C 275.15856,26.980476 274.89189,26.58581 274.55057,26.244468 C 274.20923,25.903144 273.81456,25.636478 273.36657,25.444468 C 272.9399,25.252478 272.47056,25.156478 271.95857,25.156468 L 271.95857,32.516469 C 272.47056,32.516471 272.9399,32.420471 273.36657,32.228469 C 273.81456,32.036472 274.20923,31.769805 274.55057,31.428469 C 274.89189,31.087139 275.15856,30.70314 275.35057,30.276469 C 275.54256,29.828474 275.63856,29.348474 275.63857,28.836469 M 296.45286,18.660468 C 297.60485,18.383152 298.56485,17.785819 299.33286,16.868468 C 300.12218,15.929821 300.55951,14.841822 300.64486,13.604468 C 300.62351,13.561823 300.61284,13.465823 300.61286,13.316468 C 300.61284,12.953824 300.73018,12.655157 300.96486,12.420468 C 301.22084,12.164491 301.53018,12.036491 301.89286,12.036468 C 302.25551,12.036491 302.56484,12.164491 302.82086,12.420468 C 303.07684,12.655157 303.20484,12.953824 303.20486,13.316468 C 303.20484,13.487157 303.19418,13.593823 303.17286,13.636468 C 303.13018,14.596489 302.92751,15.503155 302.56486,16.356468 C 302.20218,17.20982 301.72218,17.977819 301.12486,18.660468 C 300.52751,19.321817 299.82351,19.876484 299.01286,20.324468 C 298.22351,20.772483 297.37018,21.071149 296.45286,21.220468 L 296.45286,34.436469 C 296.45285,34.799136 296.32485,35.097802 296.06886,35.332469 C 295.83418,35.567135 295.53552,35.684468 295.17286,35.684469 C 294.81018,35.684468 294.50085,35.567135 294.24486,35.332469 C 294.01018,35.097802 293.89285,34.799136 293.89286,34.436469 L 293.89286,21.220468 C 292.93285,21.071149 292.04752,20.761816 291.23686,20.292468 C 290.42619,19.82315 289.71152,19.236484 289.09286,18.532468 C 288.49552,17.828486 288.02619,17.039153 287.68486,16.164468 C 287.34352,15.268488 287.17286,14.319156 287.17286,13.316468 C 287.17286,12.953824 287.29019,12.655157 287.52486,12.420468 C 287.78086,12.164491 288.09019,12.036491 288.45286,12.036468 C 288.81552,12.036491 289.12486,12.164491 289.38086,12.420468 C 289.63686,12.655157 289.76486,12.953824 289.76486,13.316468 L 289.73286,13.604468 C 289.75419,14.223156 289.87152,14.809822 290.08486,15.364468 C 290.31952,15.897821 290.61819,16.388487 290.98086,16.836468 C 291.36485,17.263153 291.80219,17.636486 292.29286,17.956468 C 292.78352,18.255152 293.31685,18.479152 293.89286,18.628468 L 293.89286,13.348468 C 293.89285,12.985824 294.01018,12.676491 294.24486,12.420468 C 294.50085,12.164491 294.81018,12.036491 295.17286,12.036468 C 295.53552,12.036491 295.83418,12.164491 296.06886,12.420468 C 296.32485,12.676491 296.45285,12.985824 296.45286,13.348468 L 296.45286,18.660468 M 320.95499,16.292468 C 321.36031,16.56982 321.56298,16.932486 321.56299,17.380468 C 321.56298,17.615152 321.49898,17.839152 321.37099,18.052468 C 321.26431,18.244485 321.10431,18.393818 320.89099,18.500468 C 320.69898,18.607151 320.49631,18.660485 320.28299,18.660468 C 320.04831,18.660485 319.82431,18.596485 319.61099,18.468468 L 314.90699,15.620468 L 314.90699,34.436469 C 314.90698,34.799136 314.77898,35.097802 314.52299,35.332469 C 314.28832,35.567135 313.98965,35.684468 313.62699,35.684469 C 313.26432,35.684468 312.95499,35.567135 312.69899,35.332469 C 312.46432,35.097802 312.34699,34.799136 312.34699,34.436469 L 312.34699,13.732468 C 312.34699,13.22049 312.38965,12.847157 312.47499,12.612468 C 312.58165,12.399158 312.73099,12.249825 312.92299,12.164468 C 313.11499,12.057825 313.31765,12.004491 313.53099,12.004468 C 313.59499,12.004491 313.65899,12.015158 313.72299,12.036468 C 313.78699,12.036491 313.86165,12.047158 313.94699,12.068468 C 314.03232,12.111158 314.10699,12.153825 314.17099,12.196468 C 314.25632,12.217825 314.34165,12.260491 314.42699,12.324468 L 316.95499,13.860468 L 320.95499,16.292468 M 333.94554,34.404469 C 333.94553,34.767136 333.81753,35.065802 333.56154,35.300469 C 333.32686,35.556468 333.0282,35.684468 332.66554,35.684469 C 332.30286,35.684468 331.99353,35.556468 331.73754,35.300469 C 331.50286,35.065802 331.38553,34.767136 331.38554,34.404469 L 331.38554,29.124469 C 330.80953,29.273808 330.2762,29.508474 329.78554,29.828469 C 329.29487,30.12714 328.85753,30.500473 328.47354,30.948469 C 328.11087,31.375139 327.8122,31.865805 327.57754,32.420469 C 327.3642,32.975137 327.24687,33.551137 327.22554,34.148469 L 327.25754,34.436469 C 327.25754,34.799136 327.12954,35.097802 326.87354,35.332469 C 326.61754,35.567135 326.3082,35.684468 325.94554,35.684469 C 325.58287,35.684468 325.27354,35.567135 325.01754,35.332469 C 324.78287,35.097802 324.66554,34.799136 324.66554,34.436469 C 324.66554,33.455137 324.8362,32.516471 325.17754,31.620469 C 325.51887,30.724473 325.9882,29.924474 326.58554,29.220469 C 327.2042,28.516475 327.91887,27.929809 328.72954,27.460468 C 329.5402,26.991143 330.42553,26.68181 331.38554,26.532468 L 331.38554,13.316468 C 331.38553,12.953824 331.50286,12.655157 331.73754,12.420468 C 331.99353,12.164491 332.30286,12.036491 332.66554,12.036468 C 333.0282,12.036491 333.32686,12.164491 333.56154,12.420468 C 333.81753,12.655157 333.94553,12.953824 333.94554,13.316468 L 333.94554,26.532468 C 334.86286,26.68181 335.71619,26.980476 336.50554,27.428468 C 337.31619,27.876476 338.02019,28.441809 338.61754,29.124469 C 339.21486,29.785807 339.69486,30.54314 340.05754,31.396469 C 340.42019,32.249805 340.63352,33.263137 340.69754,34.436469 C 340.69752,34.799136 340.56952,35.097802 340.31354,35.332469 C 340.05752,35.567135 339.74819,35.684468 339.38554,35.684469 C 339.02286,35.684468 338.71352,35.567135 338.45754,35.332469 C 338.22286,35.097802 338.10552,34.799136 338.10554,34.436469 C 338.10552,34.287136 338.11619,34.191136 338.13754,34.148469 C 338.05219,32.911137 337.61486,31.833805 336.82554,30.916469 C 336.05753,29.977807 335.09753,29.369808 333.94554,29.092469 L 333.94554,34.404469"
       id="text2858"
       style="font-size:24px;font-style:normal;font-variant:normal;font-weight:normal;font-stretch:normal;text-align:center;line-height:125%;writing-mode:lr-tb;text-anchor:middle;fill:#000000;fill-opacity:1;stroke:none;stroke-width:1px;stroke-linecap:butt;stroke-linejoin:miter;stroke-opacity:1;font-family:Lucida Grande;-inkscape-font-specification:Lucida Grande" />
    <path
       d="M 22.897546,49.062753 C 22.897531,48.700109 23.02553,48.390776 23.281546,48.134753 C 23.53753,47.857443 23.846863,47.718776 24.209546,47.718753 C 24.572196,47.718776 24.881529,47.846776 25.137546,48.102753 C 25.393528,48.337442 25.532195,48.636109 25.553546,48.998753 L 25.585546,48.998753 C 25.585528,50.70544 25.265528,52.316105 24.625546,53.830753 C 24.006863,55.324102 23.142864,56.646767 22.033546,57.798753 C 20.945533,58.950765 19.665534,59.878764 18.193546,60.582753 C 16.721537,61.286763 15.142872,61.681429 13.457546,61.766753 L 13.457546,70.150753 C 13.45754,70.51342 13.32954,70.812087 13.073546,71.046753 C 12.838874,71.281419 12.540208,71.398753 12.177546,71.398753 C 11.814875,71.398753 11.505542,71.281419 11.249546,71.046753 C 11.014876,70.812087 10.897543,70.51342 10.897546,70.150753 L 10.897546,49.062753 C 10.897543,48.700109 11.014876,48.390776 11.249546,48.134753 C 11.505542,47.878776 11.814875,47.750776 12.177546,47.750753 C 12.540208,47.750776 12.838874,47.878776 13.073546,48.134753 C 13.32954,48.390776 13.45754,48.700109 13.457546,49.062753 L 13.457546,54.374753 C 14.609539,54.097437 15.558871,53.489437 16.305546,52.550753 C 17.073536,51.612106 17.510869,50.438774 17.617546,49.030753 C 17.617536,48.668109 17.734869,48.369442 17.969546,48.134753 C 18.225535,47.878776 18.534868,47.750776 18.897546,47.750753 C 19.260201,47.750776 19.569534,47.878776 19.825546,48.134753 C 20.081533,48.369442 20.209533,48.668109 20.209546,49.030753 C 20.145533,50.204107 19.9322,51.217439 19.569546,52.070753 C 19.206868,52.924104 18.726868,53.692104 18.129546,54.374753 C 17.532203,55.036102 16.828203,55.590768 16.017546,56.038753 C 15.228205,56.486768 14.374872,56.785434 13.457546,56.934753 L 13.457546,59.206753 C 14.758872,59.121432 15.985537,58.801432 17.137546,58.246753 C 18.289535,57.670766 19.292201,56.934767 20.145546,56.038753 C 20.998866,55.121436 21.670865,54.065437 22.161546,52.870753 C 22.652197,51.676106 22.897531,50.406774 22.897546,49.062753 M 37.770817,56.454753 C 37.728138,55.708102 37.536139,55.004102 37.194817,54.342753 C 36.853473,53.660104 36.405473,53.073438 35.850817,52.582753 C 35.296141,52.070772 34.656141,51.676106 33.930817,51.398753 C 33.22681,51.100106 32.501477,50.950773 31.754817,50.950753 L 31.754817,70.150753 C 31.754811,70.51342 31.626811,70.812087 31.370817,71.046753 C 31.136145,71.281419 30.837479,71.398753 30.474817,71.398753 C 30.112146,71.398753 29.802813,71.281419 29.546817,71.046753 C 29.312147,70.812087 29.194814,70.51342 29.194817,70.150753 L 29.194817,49.670753 C 29.194814,49.308108 29.312147,48.998775 29.546817,48.742753 C 29.802813,48.486776 30.112146,48.358776 30.474817,48.358753 L 31.754817,48.358753 C 32.84281,48.380109 33.898809,48.604109 34.922817,49.030753 C 35.96814,49.457441 36.885473,50.044107 37.674817,50.790753 C 38.485471,51.516106 39.12547,52.369438 39.594817,53.350753 C 40.085469,54.332103 40.352136,55.366769 40.394817,56.454753 L 41.642817,70.150753 C 41.642801,70.51342 41.514801,70.812087 41.258817,71.046753 C 41.024135,71.281419 40.725469,71.398753 40.362817,71.398753 C 40.000136,71.398753 39.690803,71.281419 39.434817,71.046753 C 39.200137,70.812087 39.082804,70.51342 39.082817,70.150753 L 37.770817,56.454753 M 58.81509,59.590753 C 58.81507,60.700097 58.60174,61.745429 58.17509,62.726753 C 57.76974,63.68676 57.20441,64.529426 56.47909,65.254753 C 55.75374,65.980091 54.90041,66.556091 53.91909,66.982753 C 52.95908,67.38809 51.92441,67.590756 50.81509,67.590753 L 50.81509,70.150753 C 50.81508,70.51342 50.68708,70.812087 50.43109,71.046753 C 50.196417,71.281419 49.897751,71.398753 49.535089,71.398753 C 49.172418,71.398753 48.863085,71.281419 48.607089,71.046753 C 48.372419,70.812087 48.255086,70.51342 48.255089,70.150753 L 48.255089,49.062753 C 48.255086,48.700109 48.372419,48.390776 48.607089,48.134753 C 48.863085,47.878776 49.172418,47.750776 49.535089,47.750753 C 49.897751,47.750776 50.196417,47.878776 50.43109,48.134753 C 50.68708,48.390776 50.81508,48.700109 50.81509,49.062753 L 50.81509,51.590753 C 51.92441,51.590772 52.95908,51.804106 53.91909,52.230753 C 54.90041,52.636105 55.75374,53.201437 56.47909,53.926753 C 57.20441,54.652103 57.76974,55.505435 58.17509,56.486753 C 58.60174,57.446767 58.81507,58.481432 58.81509,59.590753 M 56.28709,59.622753 C 56.28708,58.876098 56.13774,58.172099 55.83909,57.510753 C 55.56174,56.849434 55.16708,56.273434 54.65509,55.782753 C 54.16441,55.270769 53.58841,54.876102 52.92709,54.598753 C 52.26575,54.300103 51.56175,54.15077 50.81509,54.150753 L 50.81509,65.062753 C 51.56175,65.062759 52.26575,64.924092 52.92709,64.646753 C 53.58841,64.348093 54.16441,63.953427 54.65509,63.462753 C 55.16708,62.972094 55.56174,62.396095 55.83909,61.734753 C 56.13774,61.07343 56.28708,60.36943 56.28709,59.622753 M 75.585814,52.006753 C 75.991134,52.284105 76.193804,52.646771 76.193814,53.094753 C 76.193804,53.329437 76.129804,53.553437 76.001814,53.766753 C 75.895134,53.95877 75.735134,54.108103 75.521814,54.214753 C 75.329804,54.321436 75.127134,54.37477 74.913814,54.374753 C 74.679144,54.37477 74.455144,54.31077 74.241814,54.182753 L 72.513814,53.158753 C 72.407144,53.116104 72.300474,53.062771 72.193814,52.998753 L 69.537814,51.398753 L 69.537814,54.054753 L 71.201814,55.078753 C 71.692474,55.377435 72.119144,55.633435 72.481814,55.846753 C 72.844474,56.060101 73.143144,56.241434 73.377814,56.390753 L 75.585814,57.734753 C 75.991134,58.012099 76.193804,58.374766 76.193814,58.822753 C 76.193804,59.057432 76.129804,59.281431 76.001814,59.494753 C 75.895134,59.686764 75.735134,59.836098 75.521814,59.942753 C 75.329804,60.049431 75.127134,60.102764 74.913814,60.102753 C 74.679144,60.102764 74.455144,60.038764 74.241814,59.910753 L 69.537814,57.062753 L 69.537814,70.150753 C 69.537814,70.51342 69.409814,70.812087 69.153814,71.046753 C 68.919144,71.281419 68.620474,71.398753 68.257814,71.398753 C 67.895144,71.398753 67.585814,71.281419 67.329814,71.046753 C 67.095144,70.812087 66.977814,70.51342 66.977814,70.150753 L 66.977814,48.870753 C 67.020484,48.593442 67.063144,48.412109 67.105814,48.326753 C 67.212484,48.113443 67.361814,47.964109 67.553814,47.878753 C 67.745814,47.77211 67.948484,47.718776 68.161814,47.718753 C 68.225814,47.718776 68.343144,47.74011 68.513814,47.782753 C 68.620474,47.80411 68.716474,47.846776 68.801814,47.910753 C 68.908474,47.953443 69.004474,48.006776 69.089814,48.070753 L 69.537814,48.358753 L 69.537814,48.326753 L 71.585814,49.574753 L 75.585814,52.006753 M 87.735424,51.334753 L 87.735424,70.150753 C 87.735424,70.51342 87.607424,70.812087 87.351424,71.046753 C 87.116754,71.281419 86.818084,71.398753 86.455424,71.398753 C 86.092754,71.398753 85.783424,71.281419 85.527424,71.046753 C 85.292754,70.812087 85.175424,70.51342 85.175424,70.150753 L 85.175424,49.446753 C 85.175424,48.849442 85.218094,48.476109 85.303424,48.326753 C 85.410094,48.113443 85.559424,47.964109 85.751424,47.878753 C 85.943424,47.77211 86.146094,47.718776 86.359424,47.718753 C 86.423424,47.718776 86.487424,47.729443 86.551424,47.750753 C 86.615424,47.750776 86.690084,47.761443 86.775424,47.782753 C 86.860754,47.825443 86.935424,47.868109 86.999424,47.910753 C 87.084754,47.932109 87.170084,47.974776 87.255424,48.038753 L 94.679424,52.550753 C 94.935414,52.742771 95.116744,52.988104 95.223424,53.286753 C 95.308744,53.436104 95.351414,53.617437 95.351424,53.830753 C 95.351414,54.15077 95.234084,54.428103 94.999424,54.662753 L 91.831424,58.630753 L 96.599424,69.830753 C 96.620744,69.937421 96.631414,70.033421 96.631424,70.118753 C 96.652744,70.204087 96.652744,70.300087 96.631424,70.406753 C 96.631414,70.89742 96.311414,71.217419 95.671424,71.366753 C 95.650084,71.388086 95.543414,71.398753 95.351424,71.398753 C 95.052744,71.398753 94.796744,71.313419 94.583424,71.142753 C 94.391414,70.972086 94.242084,70.748087 94.135424,70.470753 L 89.271424,59.366753 C 89.058084,59.153432 88.951424,58.854765 88.951424,58.470753 C 88.951424,58.086766 89.068754,57.777433 89.303424,57.542753 L 92.119424,53.990753 L 87.735424,51.334753 M 114.54304,49.094753 C 114.58569,50.35344 114.37236,51.526772 113.90304,52.614753 C 113.4337,53.70277 112.7937,54.652103 111.98304,55.462753 C 111.1937,56.273434 110.25503,56.913434 109.16704,57.382753 C 108.07903,57.852099 106.92704,58.086766 105.71104,58.086753 L 105.71104,70.150753 C 105.71104,70.51342 105.58304,70.812087 105.32704,71.046753 C 105.09237,71.281419 104.7937,71.398753 104.43104,71.398753 C 104.06837,71.398753 103.75904,71.281419 103.50304,71.046753 C 103.26837,70.812087 103.15104,70.51342 103.15104,70.150753 L 103.15104,49.062753 C 103.15104,48.700109 103.26837,48.390776 103.50304,48.134753 C 103.75904,47.878776 104.06837,47.750776 104.43104,47.750753 C 104.7937,47.750776 105.09237,47.878776 105.32704,48.134753 C 105.58304,48.390776 105.71104,48.700109 105.71104,49.062753 L 105.71104,55.462753 C 106.56437,55.462769 107.36437,55.302769 108.11104,54.982753 C 108.87903,54.641436 109.55103,54.18277 110.12704,53.606753 C 110.70303,53.030771 111.15103,52.358772 111.47104,51.590753 C 111.81236,50.822773 111.98303,49.990774 111.98304,49.094753 C 111.98303,48.732109 112.10036,48.422776 112.33504,48.166753 C 112.59103,47.910776 112.90036,47.782776 113.26304,47.782753 C 113.6257,47.782776 113.92436,47.910776 114.15904,48.166753 C 114.41503,48.422776 114.54303,48.732109 114.54304,49.094753 M 147.47806,49.062753 C 147.47806,48.700109 147.59539,48.390776 147.83006,48.134753 C 148.08606,47.878776 148.39539,47.750776 148.75806,47.750753 C 149.12072,47.750776 149.41939,47.878776 149.65406,48.134753 C 149.91006,48.390776 150.03806,48.700109 150.03806,49.062753 L 150.03806,58.310753 L 152.08606,58.310753 C 152.44872,58.310766 152.75805,58.438766 153.01406,58.694753 C 153.27005,58.929432 153.39805,59.228098 153.39806,59.590753 C 153.39805,59.953431 153.27005,60.262764 153.01406,60.518753 C 152.75805,60.774763 152.44872,60.902763 152.08606,60.902753 L 150.03806,60.902753 L 150.03806,70.150753 C 150.03806,70.51342 149.91006,70.812087 149.65406,71.046753 C 149.41939,71.281419 149.12072,71.398753 148.75806,71.398753 C 148.39539,71.398753 148.08606,71.281419 147.83006,71.046753 C 147.59539,70.812087 147.47806,70.51342 147.47806,70.150753 L 147.47806,60.870753 L 145.39806,60.870753 C 145.03539,60.870763 144.72606,60.75343 144.47006,60.518753 C 144.23539,60.262764 144.11806,59.953431 144.11806,59.590753 C 144.11806,59.228098 144.23539,58.929432 144.47006,58.694753 C 144.72606,58.438766 145.03539,58.310766 145.39806,58.310753 L 147.47806,58.310753 L 147.47806,49.062753 M 170.22754,70.150753 C 170.22754,70.51342 170.09954,70.812087 169.84354,71.046753 C 169.60887,71.281419 169.3102,71.398753 168.94754,71.398753 C 168.58487,71.398753 168.27554,71.281419 168.01954,71.046753 C 167.78487,70.812087 167.66754,70.51342 167.66754,70.150753 L 167.66754,49.062753 C 167.66754,48.700109 167.78487,48.390776 168.01954,48.134753 C 168.27554,47.878776 168.58487,47.750776 168.94754,47.750753 C 169.3102,47.750776 169.60887,47.878776 169.84354,48.134753 C 170.09954,48.390776 170.22754,48.700109 170.22754,49.062753 L 170.22754,57.350753 L 174.22754,59.782753 C 174.63287,60.060097 174.83553,60.422764 174.83554,60.870753 C 174.83553,61.10543 174.77153,61.329429 174.64354,61.542753 C 174.53687,61.734762 174.37687,61.884095 174.16354,61.990753 C 173.97153,62.097429 173.76887,62.150762 173.55554,62.150753 C 173.32087,62.150762 173.09687,62.086762 172.88354,61.958753 L 170.22754,60.358753 L 170.22754,70.150753 M 186.25611,49.062753 C 186.25611,48.700109 186.37344,48.390776 186.60811,48.134753 C 186.86411,47.878776 187.17344,47.750776 187.53611,47.750753 C 187.89877,47.750776 188.19744,47.878776 188.43211,48.134753 C 188.68811,48.390776 188.81611,48.700109 188.81611,49.062753 L 188.81611,70.150753 C 188.81611,70.51342 188.68811,70.812087 188.43211,71.046753 C 188.19744,71.281419 187.89877,71.398753 187.53611,71.398753 C 187.17344,71.398753 186.86411,71.281419 186.60811,71.046753 C 186.37344,70.812087 186.25611,70.51342 186.25611,70.150753 L 186.25611,49.062753 M 202.40418,61.958753 C 202.16951,62.086762 201.94551,62.150762 201.73218,62.150753 C 201.51885,62.150762 201.30551,62.097429 201.09218,61.990753 C 200.90018,61.884095 200.75085,61.734762 200.64418,61.542753 C 200.51618,61.329429 200.45218,61.10543 200.45218,60.870753 C 200.45218,60.422764 200.65485,60.060097 201.06018,59.782753 L 205.06018,57.350753 L 205.06018,49.062753 C 205.06018,48.700109 205.17751,48.390776 205.41218,48.134753 C 205.66818,47.878776 205.97751,47.750776 206.34018,47.750753 C 206.70284,47.750776 207.00151,47.878776 207.23618,48.134753 C 207.49217,48.369442 207.62017,48.668109 207.62018,49.030753 L 207.62018,70.150753 C 207.62017,70.51342 207.49217,70.812087 207.23618,71.046753 C 207.00151,71.281419 206.70284,71.398753 206.34018,71.398753 C 205.97751,71.398753 205.66818,71.281419 205.41218,71.046753 C 205.17751,70.812087 205.06018,70.51342 205.06018,70.150753 L 205.06018,60.358753 L 202.40418,61.958753 M 223.35718,49.062753 C 223.35718,48.700109 223.47451,48.390776 223.70918,48.134753 C 223.96518,47.878776 224.27451,47.750776 224.63718,47.750753 C 224.99985,47.750776 225.29851,47.878776 225.53318,48.134753 C 225.78918,48.390776 225.91718,48.700109 225.91718,49.062753 L 225.91718,59.270753 C 225.91718,59.633431 225.78918,59.942764 225.53318,60.198753 C 225.29851,60.43343 224.99985,60.550763 224.63718,60.550753 C 224.27451,60.550763 223.96518,60.43343 223.70918,60.198753 C 223.47451,59.942764 223.35718,59.633431 223.35718,59.270753 L 223.35718,49.062753 M 256.63028,48.038753 C 256.71561,47.974776 256.79027,47.932109 256.85428,47.910753 C 256.93961,47.868109 257.02494,47.825443 257.11028,47.782753 C 257.19561,47.761443 257.27027,47.750776 257.33428,47.750753 C 257.39827,47.729443 257.46227,47.718776 257.52628,47.718753 C 257.73961,47.718776 257.94227,47.77211 258.13428,47.878753 C 258.32627,47.964109 258.47561,48.113443 258.58228,48.326753 C 258.66761,48.518775 258.71027,48.892108 258.71028,49.446753 L 258.71028,70.150753 C 258.71027,70.51342 258.58227,70.812087 258.32628,71.046753 C 258.09161,71.281419 257.79294,71.398753 257.43028,71.398753 C 257.06761,71.398753 256.75827,71.281419 256.50228,71.046753 C 256.26761,70.812087 256.15027,70.51342 256.15028,70.150753 L 256.15028,51.334753 L 251.44628,54.182753 C 251.21161,54.31077 250.98761,54.37477 250.77428,54.374753 C 250.56095,54.37477 250.34761,54.321436 250.13428,54.214753 C 249.94228,54.108103 249.79295,53.95877 249.68628,53.766753 C 249.55828,53.553437 249.49428,53.329437 249.49428,53.094753 C 249.49428,52.646771 249.69695,52.284105 250.10228,52.006753 L 254.10228,49.574753 L 256.63028,48.038753 M 273.61714,54.745324 L 276.27314,53.145324 C 276.48647,53.017342 276.71047,52.953342 276.94514,52.953324 C 277.15847,52.953342 277.36113,53.006676 277.55314,53.113324 C 277.76647,53.220009 277.92647,53.369342 278.03314,53.561324 C 278.16113,53.796008 278.22513,54.020008 278.22514,54.233324 C 278.22513,54.425341 278.1718,54.628007 278.06514,54.841324 C 277.9798,55.054673 276.49713,55.972006 273.61714,57.593324 L 273.61714,60.313324 L 276.27314,58.713324 C 276.48647,58.585337 276.71047,58.521337 276.94514,58.521324 C 277.15847,58.521337 277.36113,58.57467 277.55314,58.681324 C 277.76647,58.788003 277.92647,58.937336 278.03314,59.129324 C 278.16113,59.364002 278.22513,59.588002 278.22514,59.801324 C 278.22513,60.249335 278.02247,60.612001 277.61714,60.889324 L 273.61714,63.321324 L 273.61714,70.297324 C 273.61714,70.659991 273.48914,70.969324 273.23314,71.225324 C 272.99847,71.481324 272.6998,71.609324 272.33714,71.609324 C 271.97447,71.609324 271.66514,71.481324 271.40914,71.225324 C 271.17447,70.969324 271.05714,70.659991 271.05714,70.297324 L 271.05714,49.209324 C 271.05714,48.84668 271.17447,48.548013 271.40914,48.313324 C 271.66514,48.07868 271.97447,47.961347 272.33714,47.961324 C 272.6998,47.961347 272.99847,48.07868 273.23314,48.313324 C 273.48914,48.548013 273.61714,48.84668 273.61714,49.209324 L 273.61714,54.745324 M 294.03285,49.062753 C 294.03285,48.700109 294.15018,48.390776 294.38485,48.134753 C 294.64085,47.878776 294.95018,47.750776 295.31285,47.750753 C 295.67551,47.750776 295.97418,47.878776 296.20885,48.134753 C 296.46485,48.390776 296.59285,48.700109 296.59285,49.062753 L 296.59285,50.310753 L 298.64085,50.310753 C 299.00351,50.310774 299.31284,50.438774 299.56885,50.694753 C 299.82484,50.92944 299.95284,51.228106 299.95285,51.590753 C 299.95284,51.953439 299.83551,52.262772 299.60085,52.518753 C 299.36618,52.753438 299.06751,52.870771 298.70485,52.870753 L 296.59285,52.870753 L 296.59285,70.150753 C 296.59285,70.51342 296.46485,70.812087 296.20885,71.046753 C 295.97418,71.281419 295.67551,71.398753 295.31285,71.398753 C 294.95018,71.398753 294.64085,71.281419 294.38485,71.046753 C 294.15018,70.812087 294.03285,70.51342 294.03285,70.150753 L 294.03285,52.870753 L 291.95285,52.870753 C 291.59018,52.870771 291.28085,52.753438 291.02485,52.518753 C 290.79018,52.262772 290.67285,51.953439 290.67285,51.590753 C 290.67285,51.228106 290.79018,50.92944 291.02485,50.694753 C 291.28085,50.438774 291.59018,50.310774 291.95285,50.310753 L 294.03285,50.310753 L 294.03285,49.062753 M 320.76544,52.006753 C 321.17076,52.284105 321.37343,52.646771 321.37344,53.094753 C 321.37343,53.329437 321.30943,53.553437 321.18144,53.766753 C 321.07476,53.95877 320.91476,54.108103 320.70144,54.214753 C 320.50943,54.321436 320.30676,54.37477 320.09344,54.374753 C 319.85877,54.37477 319.63477,54.31077 319.42144,54.182753 L 314.71744,51.334753 L 314.71744,70.150753 C 314.71744,70.51342 314.58944,70.812087 314.33344,71.046753 C 314.09877,71.281419 313.8001,71.398753 313.43744,71.398753 C 313.07477,71.398753 312.76544,71.281419 312.50944,71.046753 C 312.27477,70.812087 312.15744,70.51342 312.15744,70.150753 L 312.15744,49.446753 C 312.15744,48.934775 312.20011,48.561442 312.28544,48.326753 C 312.39211,48.113443 312.54144,47.964109 312.73344,47.878753 C 312.92544,47.77211 313.12811,47.718776 313.34144,47.718753 C 313.40544,47.718776 313.46944,47.729443 313.53344,47.750753 C 313.59744,47.750776 313.6721,47.761443 313.75744,47.782753 C 313.84277,47.825443 313.91744,47.868109 313.98144,47.910753 C 314.06677,47.932109 314.1521,47.974776 314.23744,48.038753 L 316.76544,49.574753 L 320.76544,52.006753 M 331.38143,59.942753 C 331.38143,59.580098 331.49876,59.270765 331.73343,59.014753 C 331.98943,58.758765 332.29876,58.630765 332.66143,58.630753 C 333.0241,58.630765 333.33343,58.758765 333.58943,59.014753 C 333.84543,59.270765 333.96276,59.686764 333.94143,60.262753 L 333.94143,70.150753 C 333.94143,70.51342 333.81343,70.812087 333.55743,71.046753 C 333.32276,71.281419 333.0241,71.398753 332.66143,71.398753 C 332.29876,71.398753 331.98943,71.281419 331.73343,71.046753 C 331.49876,70.812087 331.38143,70.51342 331.38143,70.150753 L 331.38143,59.942753"
       id="text2862"
       style="font-size:24px;font-style:normal;font-variant:normal;font-weight:normal;font-stretch:normal;text-align:center;line-height:125%;writing-mode:lr-tb;text-anchor:middle;fill:#000000;fill-opacity:1;stroke:none;stroke-width:1px;stroke-linecap:butt;stroke-linejoin:miter;stroke-opacity:1;font-family:Lucida Grande;-inkscape-font-specification:Lucida Grande" />
    <text
       x="14.667969"
       y="107.1479"
       id="text2395"
       xml:space="preserve"
       style="font-size:28px;font-style:normal;font-variant:normal;font-weight:normal;font-stretch:normal;text-align:center;line-height:125%;writing-mode:lr-tb;text-anchor:middle;fill:#000000;fill-opacity:1;stroke:none;stroke-width:1px;stroke-linecap:butt;stroke-linejoin:miter;stroke-opacity:1;font-family:Lucida Grande;-inkscape-font-specification:Lucida Grande"><tspan
         x="14.667969"
         y="107.1479"
         id="tspan2397"
         style="font-size:28px;font-style:normal;font-variant:normal;font-weight:normal;font-stretch:normal;font-family:DejaVu Serif;-inkscape-font-specification:DejaVu Serif">f</tspan></text>
    <text
       x="34.667969"
       y="107.1479"
       id="text2399"
       xml:space="preserve"
       style="font-size:28px;font-style:normal;font-variant:normal;font-weight:normal;font-stretch:normal;text-align:center;line-height:125%;writing-mode:lr-tb;text-anchor:middle;fill:#000000;fill-opacity:1;stroke:none;stroke-width:1px;stroke-linecap:butt;stroke-linejoin:miter;stroke-opacity:1;font-family:Lucida Grande;-inkscape-font-specification:Lucida Grande"><tspan
         x="34.667969"
         y="107.1479"
         id="tspan2401"
         style="font-size:28px;font-style:normal;font-variant:normal;font-weight:normal;font-stretch:normal;font-family:DejaVu Serif;-inkscape-font-specification:DejaVu Serif">u</tspan></text>
    <text
       x="53.657818"
       y="107.1479"
       id="text2403"
       xml:space="preserve"
       style="font-size:28px;font-style:normal;font-variant:normal;font-weight:normal;font-stretch:normal;text-align:center;line-height:125%;writing-mode:lr-tb;text-anchor:middle;fill:#000000;fill-opacity:1;stroke:none;stroke-width:1px;stroke-linecap:butt;stroke-linejoin:miter;stroke-opacity:1;font-family:Lucida Grande;-inkscape-font-specification:Lucida Grande"><tspan
         x="53.657818"
         y="107.1479"
         id="tspan2405"
         style="font-size:28px;font-style:normal;font-variant:normal;font-weight:normal;font-stretch:normal;font-family:DejaVu Serif;-inkscape-font-specification:DejaVu Serif">þ</tspan></text>
    <text
       x="72.667969"
       y="107.1479"
       id="text2407"
       xml:space="preserve"
       style="font-size:28px;font-style:normal;font-variant:normal;font-weight:normal;font-stretch:normal;text-align:center;line-height:125%;writing-mode:lr-tb;text-anchor:middle;fill:#000000;fill-opacity:1;stroke:none;stroke-width:1px;stroke-linecap:butt;stroke-linejoin:miter;stroke-opacity:1;font-family:Lucida Grande;-inkscape-font-specification:Lucida Grande"><tspan
         x="72.667969"
         y="107.1479"
         id="tspan2409"
         style="font-size:28px;font-style:normal;font-variant:normal;font-weight:normal;font-stretch:normal;font-family:DejaVu Serif;-inkscape-font-specification:DejaVu Serif">ą</tspan></text>
    <text
       x="90.667969"
       y="107.1479"
       id="text2411"
       xml:space="preserve"
       style="font-size:28px;font-style:normal;font-variant:normal;font-weight:normal;font-stretch:normal;text-align:center;line-height:125%;writing-mode:lr-tb;text-anchor:middle;fill:#000000;fill-opacity:1;stroke:none;stroke-width:1px;stroke-linecap:butt;stroke-linejoin:miter;stroke-opacity:1;font-family:Lucida Grande;-inkscape-font-specification:Lucida Grande"><tspan
         x="90.667969"
         y="107.1479"
         id="tspan2413"
         style="font-size:28px;font-style:normal;font-variant:normal;font-weight:normal;font-stretch:normal;font-family:DejaVu Serif;-inkscape-font-specification:DejaVu Serif">r</tspan></text>
    <text
       x="108.66797"
       y="107.1479"
       id="text2415"
       xml:space="preserve"
       style="font-size:28px;font-style:normal;font-variant:normal;font-weight:normal;font-stretch:normal;text-align:center;line-height:125%;writing-mode:lr-tb;text-anchor:middle;fill:#000000;fill-opacity:1;stroke:none;stroke-width:1px;stroke-linecap:butt;stroke-linejoin:miter;stroke-opacity:1;font-family:Lucida Grande;-inkscape-font-specification:Lucida Grande"><tspan
         x="108.66797"
         y="107.1479"
         id="tspan2417"
         style="font-size:28px;font-style:normal;font-variant:normal;font-weight:normal;font-stretch:normal;font-family:DejaVu Serif;-inkscape-font-specification:DejaVu Serif">k</tspan></text>
    <text
       x="148.66797"
       y="107.1479"
       id="text2423"
       xml:space="preserve"
       style="font-size:28px;font-style:normal;font-variant:normal;font-weight:normal;font-stretch:normal;text-align:center;line-height:125%;writing-mode:lr-tb;text-anchor:middle;fill:#000000;fill-opacity:1;stroke:none;stroke-width:1px;stroke-linecap:butt;stroke-linejoin:miter;stroke-opacity:1;font-family:Lucida Grande;-inkscape-font-specification:Lucida Grande"><tspan
         x="148.66797"
         y="107.1479"
         id="tspan2425"
         style="font-size:28px;font-style:normal;font-variant:normal;font-weight:normal;font-stretch:normal;font-family:DejaVu Serif;-inkscape-font-specification:DejaVu Serif">h</tspan></text>
    <text
       x="170.66797"
       y="107.1479"
       id="text2427"
       xml:space="preserve"
       style="font-size:28px;font-style:normal;font-variant:normal;font-weight:normal;font-stretch:normal;text-align:center;line-height:125%;writing-mode:lr-tb;text-anchor:middle;fill:#000000;fill-opacity:1;stroke:none;stroke-width:1px;stroke-linecap:butt;stroke-linejoin:miter;stroke-opacity:1;font-family:Lucida Grande;-inkscape-font-specification:Lucida Grande"><tspan
         x="170.66797"
         y="107.1479"
         id="tspan2429"
         style="font-size:28px;font-style:normal;font-variant:normal;font-weight:normal;font-stretch:normal;font-family:DejaVu Serif;-inkscape-font-specification:DejaVu Serif">n</tspan></text>
    <text
       x="188.66797"
       y="107.1479"
       id="text2431"
       xml:space="preserve"
       style="font-size:28px;font-style:normal;font-variant:normal;font-weight:normal;font-stretch:normal;text-align:center;line-height:125%;writing-mode:lr-tb;text-anchor:middle;fill:#000000;fill-opacity:1;stroke:none;stroke-width:1px;stroke-linecap:butt;stroke-linejoin:miter;stroke-opacity:1;font-family:Lucida Grande;-inkscape-font-specification:Lucida Grande"><tspan
         x="188.66797"
         y="107.1479"
         id="tspan2433"
         style="font-size:28px;font-style:normal;font-variant:normal;font-weight:normal;font-stretch:normal;font-family:DejaVu Serif;-inkscape-font-specification:DejaVu Serif">i</tspan></text>
    <text
       x="206.66797"
       y="107.1479"
       id="text2435"
       xml:space="preserve"
       style="font-size:28px;font-style:normal;font-variant:normal;font-weight:normal;font-stretch:normal;text-align:center;line-height:125%;writing-mode:lr-tb;text-anchor:middle;fill:#000000;fill-opacity:1;stroke:none;stroke-width:1px;stroke-linecap:butt;stroke-linejoin:miter;stroke-opacity:1;font-family:Lucida Grande;-inkscape-font-specification:Lucida Grande"><tspan
         x="206.66797"
         y="107.1479"
         id="tspan2437"
         style="font-size:28px;font-style:normal;font-variant:normal;font-weight:normal;font-stretch:normal;font-family:DejaVu Serif;-inkscape-font-specification:DejaVu Serif">a</tspan></text>
    <text
       x="226.66797"
       y="107.1479"
       id="text2439"
       xml:space="preserve"
       style="font-size:28px;font-style:normal;font-variant:normal;font-weight:normal;font-stretch:normal;text-align:center;line-height:125%;writing-mode:lr-tb;text-anchor:middle;fill:#000000;fill-opacity:1;stroke:none;stroke-width:1px;stroke-linecap:butt;stroke-linejoin:miter;stroke-opacity:1;font-family:Lucida Grande;-inkscape-font-specification:Lucida Grande"><tspan
         x="226.66797"
         y="107.1479"
         id="tspan2441"
         style="font-size:28px;font-style:normal;font-variant:normal;font-weight:normal;font-stretch:normal;font-family:DejaVu Serif;-inkscape-font-specification:DejaVu Serif">s</tspan></text>
    <text
       x="256.66797"
       y="107.1479"
       id="text2443"
       xml:space="preserve"
       style="font-size:28px;font-style:normal;font-variant:normal;font-weight:normal;font-stretch:normal;text-align:center;line-height:125%;writing-mode:lr-tb;text-anchor:middle;fill:#000000;fill-opacity:1;stroke:none;stroke-width:1px;stroke-linecap:butt;stroke-linejoin:miter;stroke-opacity:1;font-family:Lucida Grande;-inkscape-font-specification:Lucida Grande"><tspan
         x="256.66797"
         y="107.1479"
         id="tspan2445"
         style="font-size:28px;font-style:normal;font-variant:normal;font-weight:normal;font-stretch:normal;font-family:DejaVu Serif;-inkscape-font-specification:DejaVu Serif">t</tspan></text>
    <text
       x="274.66797"
       y="107.1479"
       id="text2447"
       xml:space="preserve"
       style="font-size:28px;font-style:normal;font-variant:normal;font-weight:normal;font-stretch:normal;text-align:center;line-height:125%;writing-mode:lr-tb;text-anchor:middle;fill:#000000;fill-opacity:1;stroke:none;stroke-width:1px;stroke-linecap:butt;stroke-linejoin:miter;stroke-opacity:1;font-family:Lucida Grande;-inkscape-font-specification:Lucida Grande"><tspan
         x="274.66797"
         y="107.1479"
         id="tspan2449"
         style="font-size:28px;font-style:normal;font-variant:normal;font-weight:normal;font-stretch:normal;font-family:DejaVu Serif;-inkscape-font-specification:DejaVu Serif">b</tspan></text>
    <text
       x="317.95367"
       y="107.1479"
       id="text2451"
       xml:space="preserve"
       style="font-size:28px;font-style:normal;font-variant:normal;font-weight:normal;font-stretch:normal;text-align:center;line-height:125%;writing-mode:lr-tb;text-anchor:middle;fill:#000000;fill-opacity:1;stroke:none;stroke-width:1px;stroke-linecap:butt;stroke-linejoin:miter;stroke-opacity:1;font-family:Lucida Grande;-inkscape-font-specification:Lucida Grande"><tspan
         x="317.95367"
         y="107.1479"
         id="tspan2453"
         style="font-size:28px;font-style:normal;font-variant:normal;font-weight:normal;font-stretch:normal;font-family:DejaVu Serif;-inkscape-font-specification:DejaVu Serif">l</tspan></text>
    <text
       x="298.07477"
       y="107.1479"
       id="text2455"
       xml:space="preserve"
       style="font-size:28px;font-style:normal;font-variant:normal;font-weight:normal;font-stretch:normal;text-align:center;line-height:125%;writing-mode:lr-tb;text-anchor:middle;fill:#000000;fill-opacity:1;stroke:none;stroke-width:1px;stroke-linecap:butt;stroke-linejoin:miter;stroke-opacity:1;font-family:Lucida Grande;-inkscape-font-specification:Lucida Grande"><tspan
         x="298.07477"
         y="107.1479"
         id="tspan2457"
         style="font-size:28px;font-style:normal;font-variant:normal;font-weight:normal;font-stretch:normal;font-family:DejaVu Serif;-inkscape-font-specification:DejaVu Serif">m</tspan></text>
    <text
       x="332.66797"
       y="107.1479"
       id="text2459"
       xml:space="preserve"
       style="font-size:28px;font-style:normal;font-variant:normal;font-weight:normal;font-stretch:normal;text-align:center;line-height:125%;writing-mode:lr-tb;text-anchor:middle;fill:#000000;fill-opacity:1;stroke:none;stroke-width:1px;stroke-linecap:butt;stroke-linejoin:miter;stroke-opacity:1;font-family:Lucida Grande;-inkscape-font-specification:Lucida Grande"><tspan
         x="332.66797"
         y="107.1479"
         id="tspan2461"
         style="font-size:28px;font-style:normal;font-variant:normal;font-weight:normal;font-stretch:normal;font-family:DejaVu Serif;-inkscape-font-specification:DejaVu Serif">ʀ</tspan></text>
  </g>
</svg>
